<svg width="400" height="78" viewBox="0 0 400 78" fill="none" xmlns="http://www.w3.org/2000/svg">
<rect width="400" height="78" rx="12" fill="#F4F4F4"/>
<path d="M55.0117 26.9688V28.5508H48.7188V29.8691C51.5664 30.0625 53.2363 31.0469 53.2539 32.6992C53.2363 34.5273 51.1797 35.5469 47.752 35.5469C44.2891 35.5469 42.2148 34.5273 42.2148 32.6992C42.2148 31.0469 43.9023 30.0537 46.7852 29.8691V28.5508H40.5273V26.9688H55.0117ZM47.752 31.3457C45.4316 31.3633 44.1836 31.8203 44.2012 32.6992C44.1836 33.5781 45.4316 34.0527 47.752 34.0527C50.0195 34.0527 51.2852 33.5781 51.3027 32.6992C51.2852 31.8203 50.0195 31.3633 47.752 31.3457ZM53.7109 20.377V21.9414H49.1406C49.4482 23.251 51.3467 24.4287 54.3262 24.7012L53.6406 26.248C50.7578 25.958 48.6133 24.8066 47.752 23.1895C46.8906 24.7979 44.7812 25.958 41.8984 26.248L41.2305 24.7012C44.1484 24.4287 46.0469 23.2334 46.3809 21.9414H41.8457V20.377H53.7109ZM69.0566 21.1328V22.6621C69.0391 24.6309 69.0391 26.8457 68.4238 30.168L66.4551 29.957C67.0703 26.8633 67.0703 24.6045 67.0879 22.6973H57.5957V21.1328H69.0566ZM70.5684 31.9082V33.5078H56.084V31.9082H61.4277V26.3887H63.3613V31.9082H70.5684ZM77.2305 24.7188C77.2305 27.0742 78.5664 29.6406 81.0098 30.8008L79.9199 32.2773C78.2061 31.4775 76.958 29.9043 76.2988 28.041C75.5957 30.0449 74.2861 31.7412 72.4668 32.5586L71.3945 31.0469C73.8906 29.9219 75.2969 27.2148 75.2969 24.7188V23.8926H71.9043V22.3281H75.2969V20.0078H77.248V22.3281H80.5879V23.8926H77.2305V24.7188ZM84.0859 19.6738V25.9668H86.5293V27.6016H84.0859V35.5645H82.1348V19.6738H84.0859ZM100.1 26.8984V28.4453H95.3887V32.084H101.717V33.6836H87.1973V32.084H93.4551V28.4453H88.9551V20.8516H99.9766V22.416H90.9062V26.8984H100.1Z" fill="#E51837"/>
<path d="M120.262 19.6914V31.293H118.293V19.6914H120.262ZM120.701 33.666V35.248H109.75V30.1855H111.719V33.666H120.701ZM112.949 22.1172C112.949 24.332 114.25 26.4238 116.764 27.2676L115.762 28.8145C113.951 28.1816 112.659 26.916 111.965 25.2988C111.244 27.0303 109.935 28.4189 108.062 29.0957L107.043 27.5488C109.627 26.6348 110.928 24.4023 110.928 22.1172V20.5703H112.949V22.1172ZM128.172 24.7188C128.172 27.0742 129.508 29.6406 131.951 30.8008L130.861 32.2773C129.147 31.4775 127.899 29.9043 127.24 28.041C126.537 30.0449 125.228 31.7412 123.408 32.5586L122.336 31.0469C124.832 29.9219 126.238 27.2148 126.238 24.7188V23.8926H122.846V22.3281H126.238V20.0078H128.189V22.3281H131.529V23.8926H128.172V24.7188ZM135.027 19.6738V25.9668H137.471V27.6016H135.027V35.5645H133.076V19.6738H135.027ZM151.463 19.6738V35.582H149.512V27.4609H146.436V25.8789H149.512V19.6738H151.463ZM143.939 24.7188C143.922 27.127 145.363 29.6934 147.877 30.8008L146.822 32.2949C145.003 31.5215 143.685 29.9307 142.99 28.0234C142.287 30.0449 140.978 31.7412 139.158 32.5586L138.104 31.0469C140.582 29.9219 141.988 27.2148 141.988 24.7188V23.8926H138.578V22.3281H142.006V20.0078H143.957V22.3281H147.279V23.8926H143.939V24.7188ZM167.002 29.7637V35.3711H156.367V29.7637H167.002ZM158.318 31.293V33.7891H165.068V31.293H158.318ZM167.002 19.6914V29.0254H165.051V24.6484H162.344V23.0664H165.051V19.6914H167.002ZM161.465 20.4473V25.1406H156.279V26.916C158.749 26.8984 160.568 26.8193 162.678 26.4941L162.818 28.0762C160.48 28.4629 158.459 28.5156 155.594 28.5156H154.346V23.6641H159.549V22.0293H154.311V20.4473H161.465ZM172.521 21.2734L172.328 30.2559H170.342L170.131 21.2734H172.521ZM171.344 34.1406C170.588 34.1406 169.973 33.5254 169.973 32.7695C169.973 32.0312 170.588 31.416 171.344 31.416C172.064 31.416 172.697 32.0312 172.697 32.7695C172.697 33.5254 172.064 34.1406 171.344 34.1406Z" fill="#FF7A00"/>
<path d="M50.1562 48.6055C50.1562 49.9863 51.0312 51.3262 52.5898 51.8867L51.9746 52.8711C50.8193 52.4199 50.0127 51.5791 49.5684 50.5469C49.1445 51.6748 48.3242 52.5977 47.1348 53.0762L46.5195 52.1191C48.0645 51.4902 48.9258 50.082 48.9258 48.6055V48.4961H46.793V47.457H48.9258V46.0488H50.1562V47.457H52.2617V48.4961H50.1562V48.6055ZM56.8965 45.9258V53.418H55.666V50.1914H54.2715V53.3633H53.0273V46.1309H54.2715V49.125H55.666V45.9258H56.8965ZM56.8965 54.0332V58.1621H55.6113V55.0859H48.5703V54.0332H56.8965ZM68.709 45.9258V52.8984H67.4102V45.9258H68.709ZM68.709 53.5137V58.0117H60.6562V53.5137H68.709ZM61.9414 54.5527V56.959H67.4375V54.5527H61.9414ZM62.0645 46.541C63.9375 46.541 65.3184 47.7168 65.3184 49.4395C65.3184 51.1211 63.9375 52.3105 62.0645 52.3105C60.1914 52.3105 58.7969 51.1211 58.7969 49.4395C58.7969 47.7168 60.1914 46.541 62.0645 46.541ZM62.0645 47.6348C60.9023 47.6348 60.0684 48.3457 60.0684 49.4395C60.0684 50.4922 60.9023 51.2168 62.0645 51.2168C63.2129 51.2168 64.0469 50.4922 64.0469 49.4395C64.0469 48.3457 63.2129 47.6348 62.0645 47.6348ZM75.1621 49.5215C75.1621 51.5723 76.502 53.6914 78.3887 54.498L77.6777 55.5098C76.2354 54.874 75.0869 53.5273 74.5195 51.8867C73.9521 53.6367 72.7969 55.127 71.375 55.8242L70.623 54.7988C72.4688 53.9375 73.8359 51.627 73.8496 49.5215V48.2227H71.0469V47.1426H77.9512V48.2227H75.1621V49.5215ZM80.7949 45.9121V58.1621H79.4961V45.9121H80.7949ZM92.6621 49.4941V50.5332H84.2266V46.3496H85.5117V49.4941H92.6621ZM93.9473 52.0781V53.1172H82.7363V52.0781H93.9473ZM92.7441 56.8086V57.875H84.1309V54.2793H85.4297V56.8086H92.7441ZM104.215 49.7129C104.119 48.7969 103.312 48.2637 102.178 48.2637C100.961 48.2637 100.195 48.8789 100.195 49.7266C100.195 50.6699 101.221 51.0254 102 51.2168L102.957 51.4766C104.229 51.7773 105.801 52.4746 105.814 54.2656C105.801 55.9336 104.475 57.1641 102.137 57.1641C99.9219 57.1641 98.5273 56.0566 98.4316 54.252H99.9355C100.031 55.332 100.975 55.8516 102.137 55.8516C103.395 55.8516 104.311 55.209 104.324 54.2383C104.311 53.377 103.504 53.0215 102.451 52.748L101.275 52.4336C99.6895 51.9961 98.6914 51.1895 98.6914 49.8086C98.6914 48.0996 100.223 46.9648 102.219 46.9648C104.229 46.9648 105.637 48.1133 105.678 49.7129H104.215ZM107.428 57V47.1016H108.932V51.8184H109.055L113.197 47.1016H115.084L111.092 51.5586L115.098 57H113.279L110.094 52.584L108.932 53.9238V57H107.428ZM125.926 45.9258V54.8262H124.627V45.9258H125.926ZM126.295 56.8496V57.9023H117.914V53.9238H119.227V56.8496H126.295ZM119.281 46.7461C121.127 46.7461 122.535 48.0039 122.535 49.7812C122.535 51.5859 121.127 52.8301 119.281 52.8301C117.436 52.8301 116.014 51.5859 116.014 49.7812C116.014 48.0039 117.436 46.7461 119.281 46.7461ZM119.281 47.8809C118.133 47.8809 117.285 48.6602 117.285 49.7812C117.285 50.9297 118.133 51.6953 119.281 51.6953C120.402 51.6953 121.264 50.9297 121.264 49.7812C121.264 48.6602 120.402 47.8809 119.281 47.8809ZM139.037 51.6816V52.7344H127.867V51.6816H139.037ZM133.445 53.6777C136.084 53.6777 137.67 54.498 137.67 55.9199C137.67 57.3418 136.084 58.1484 133.445 58.1348C130.793 58.1484 129.193 57.3418 129.193 55.9199C129.193 54.498 130.793 53.6777 133.445 53.6777ZM133.445 54.6895C131.572 54.7031 130.506 55.127 130.506 55.9199C130.506 56.6992 131.572 57.1094 133.445 57.1094C135.291 57.1094 136.371 56.6992 136.371 55.9199C136.371 55.127 135.291 54.7031 133.445 54.6895ZM138.039 46.5137V47.5801H134.32C134.464 48.7695 136.2 49.7812 138.463 50.0137L137.998 51.0391C135.879 50.793 134.122 49.8975 133.459 48.6055C132.775 49.8975 131.025 50.793 128.906 51.0391L128.455 50.0137C130.677 49.7812 132.427 48.7764 132.584 47.5801H128.893V46.5137H138.039ZM153.529 45.9121V52.2148H152.244V45.9121H153.529ZM153.543 52.8027V55.8652H146.789V57H153.953V58.0391H145.531V54.8809H152.258V53.8281H145.49V52.8027H153.543ZM147.842 47.1836C147.828 48.8242 149.018 50.3145 150.891 50.9023L150.248 51.9141C148.819 51.4492 147.746 50.4785 147.199 49.2344C146.639 50.5742 145.545 51.6406 144.082 52.1465L143.426 51.1211C145.34 50.4785 146.516 48.8789 146.516 47.1836V46.2402H147.842V47.1836ZM159.982 49.0293C159.969 51.2715 161.322 53.5137 163.223 54.3613L162.443 55.3867C161.035 54.7168 159.921 53.3428 159.354 51.668C158.779 53.459 157.651 54.9424 156.182 55.6602L155.389 54.5664C157.316 53.7051 158.67 51.3672 158.67 49.0293V46.9375H159.982V49.0293ZM165.629 45.9121V58.1895H164.33V45.9121H165.629Z" fill="#2E3033"/>
<mask id="mask0_122_7665" style="mask-type:alpha" maskUnits="userSpaceOnUse" x="220" y="2" width="140" height="74">
<rect x="220" y="2.5" width="140" height="73" fill="#D9D9D9"/>
</mask>
<g mask="url(#mask0_122_7665)">
<rect opacity="0.6" x="259.406" y="69.4691" width="57.4434" height="1.84082" rx="0.920411" fill="#747474"/>
<path d="M267.867 67.4784H276.272V65.4924H267.664L267.867 67.4784Z" fill="#242634"/>
<path d="M291.641 57.2213H277.012V66.3283H291.641V57.2213Z" fill="#181936"/>
<path d="M316.05 57.2213H304.297V66.3283H316.05V57.2213Z" fill="#181936"/>
<path d="M283.522 64.5462C283.522 63.4544 283.291 62.4312 282.889 61.5505V58.5555H279.869V58.5742C277.278 58.5742 275.178 61.2481 275.178 64.5465C275.178 67.8444 277.278 70.5186 279.869 70.5186H282.889V67.5424C283.291 66.661 283.522 65.6383 283.522 64.5462Z" fill="#242634"/>
<path d="M282.46 70.533C285.051 70.533 287.151 67.859 287.151 64.5607C287.151 61.2625 285.051 58.5884 282.46 58.5884C279.869 58.5884 277.769 61.2625 277.769 64.5607C277.769 67.8592 279.869 70.533 282.46 70.533Z" fill="#2E303F"/>
<path d="M282.956 68.6117C284.537 68.6117 285.819 66.8003 285.819 64.5657C285.819 62.3311 284.537 60.5198 282.956 60.5198C281.374 60.5198 280.092 62.3311 280.092 64.5657C280.092 66.8003 281.374 68.6117 282.956 68.6117Z" fill="#E1E2F1"/>
<path d="M283.227 66.8085C284.109 66.8085 284.823 65.7991 284.823 64.5537C284.823 63.3086 284.109 62.2988 283.227 62.2988C282.346 62.2988 281.632 63.3084 281.632 64.5537C281.632 65.7991 282.346 66.8085 283.227 66.8085Z" fill="#848095"/>
<path d="M270.533 63.9745C270.533 60.79 269.17 58.1766 267.431 57.8949L266.314 57.8492H265.594V57.8686C263.709 57.8686 262.18 60.6023 262.18 63.9745C262.18 67.3462 263.709 70.0803 265.594 70.0803H267.431C269.17 69.7985 270.533 67.1588 270.533 63.9745Z" fill="#242634"/>
<path d="M311.01 64.5462C311.01 63.4544 310.779 62.4312 310.377 61.5505V58.5555H307.357V58.5742C304.766 58.5742 302.666 61.2481 302.666 64.5465C302.666 67.8444 304.766 70.5186 307.357 70.5186H310.377V67.5424C310.779 66.661 311.01 65.6383 311.01 64.5462Z" fill="#242634"/>
<path d="M309.957 70.533C312.548 70.533 314.649 67.859 314.649 64.5607C314.649 61.2625 312.548 58.5884 309.957 58.5884C307.367 58.5884 305.266 61.2625 305.266 64.5607C305.266 67.8592 307.367 70.533 309.957 70.533Z" fill="#2E303F"/>
<path d="M310.452 68.6117C312.033 68.6117 313.315 66.8003 313.315 64.5657C313.315 62.3311 312.033 60.5198 310.452 60.5198C308.87 60.5198 307.588 62.3311 307.588 64.5657C307.588 66.8003 308.87 68.6117 310.452 68.6117Z" fill="#E1E2F1"/>
<path d="M316.637 65.3648V60.6935C316.637 60.3186 316.316 59.994 316.316 59.994C316.045 59.7691 316.045 59.2444 316.045 59.2444V58.0519C316.045 55.6603 313.164 54.7727 313.164 54.7727L306.297 48.8274C303.926 46.7288 301.555 46.5431 301.555 46.5431H283.374C281.842 46.5431 279.374 47.2834 279.374 47.2834L270.303 52.6968L257.001 55.9393C255 56.4983 255 58.0519 255 58.0519V64.9403C255 64.9403 255.05 66.3281 256.519 66.3281H277.679C278.183 66.3281 278.26 65.7568 278.26 65.7568V64.3447C278.26 60.9231 280.466 58.1493 283.188 58.1493C285.91 58.1493 288.116 60.9229 288.116 64.3447V66.3279H305.758V64.3447C305.758 60.9231 307.964 58.1493 310.686 58.1493C313.408 58.1493 315.615 60.9229 315.615 64.3447V66.3279H315.685C316.66 66.3281 316.637 65.3648 316.637 65.3648Z" fill="#F2F2F2"/>
<path d="M318.928 60.1156H318.736C318.469 60.1156 318.459 59.8097 318.459 59.8097V56.2001C318.459 54.7273 317.077 54.2335 317.077 54.2335L312.385 52.7941C310.746 52.2909 308.805 50.9958 308.801 50.9935L306.297 48.8253C303.926 46.7268 301.555 46.541 301.555 46.541H283.374C281.842 46.541 279.374 47.2814 279.374 47.2814L270.303 52.6947L257.001 55.9372C255 56.4963 255 58.05 255 58.05V64.9384C255 64.9384 255.05 66.3262 256.519 66.3262H277.679C278.183 66.3262 278.26 65.7548 278.26 65.7548V64.3428C278.26 60.9212 280.466 58.1474 283.188 58.1474C285.91 58.1474 288.116 60.921 288.116 64.3428V66.326H305.758V64.3428C305.758 60.9212 307.964 58.1474 310.686 58.1474C313.408 58.1474 315.615 60.921 315.615 64.3428V66.326H315.324L315.324 66.3263H316.406C316.413 66.3265 316.419 66.3283 316.426 66.3283H318.544C318.918 66.3283 319.221 66.0286 319.221 65.659V60.9876V60.8298V60.3755C319.222 60.1117 318.928 60.1156 318.928 60.1156Z" fill="#F2F2F2"/>
<path d="M318.928 60.1154H318.735C318.469 60.1154 318.459 59.8095 318.459 59.8095V56.2001C318.459 54.7273 317.077 54.2335 317.077 54.2335L312.385 52.794C310.918 52.344 309.211 51.2607 308.865 51.0355L306.312 48.8253C303.941 46.7268 301.57 46.541 301.57 46.541H291.484L287.312 52.6959L275.04 55.9212C275.04 55.9212 273.32 56.5824 273.32 58.0497V65.3127C273.32 65.3127 273.246 66.3258 274.481 66.3258H277.695C278.198 66.3258 278.275 65.7545 278.275 65.7545V64.3424C278.275 60.9208 280.482 58.1471 283.204 58.1471C285.925 58.1471 288.132 60.9207 288.132 64.3424V66.3257H305.774V64.3424C305.774 60.9208 307.98 58.1471 310.702 58.1471C313.424 58.1471 315.63 60.9207 315.63 64.3424V66.3257H315.324L315.324 66.326H316.406C316.412 66.3262 316.419 66.328 316.425 66.328H318.543C318.918 66.328 319.221 66.0283 319.221 65.6586V60.9873V60.8295V60.3751C319.221 60.1116 318.928 60.1154 318.928 60.1154Z" fill="#EBEBEB"/>
<path d="M318.928 60.1154H318.736C318.469 60.1154 318.459 59.8095 318.459 59.8095V57.6728H316.049C316.048 57.6593 316.048 57.6444 321.131 57.631H276.759C271.644 57.7634 273.32 57.9031 273.32 58.052V65.3151C273.32 65.3151 273.246 66.328 274.481 66.328H277.695C278.198 66.328 278.275 65.7569 278.275 65.7569V64.3448C278.275 60.9234 280.482 58.1494 283.204 58.1494C285.925 58.1494 288.132 60.9234 288.132 64.3448V66.3279H305.774V64.3448C305.774 60.9234 307.98 58.1494 310.702 58.1494C313.424 58.1494 315.63 60.9234 315.63 64.3448V66.3279H315.701C315.71 66.3279 315.718 66.3264 315.727 66.3262H316.406C316.413 66.3264 316.419 66.3282 316.425 66.3282H318.544C318.918 66.3282 319.221 66.0285 319.221 65.6588V60.9875V60.8297V60.3753C319.222 60.1116 318.928 60.1154 318.928 60.1154Z" fill="#D0D0D0"/>
<path d="M273.305 65.315V58.0519C273.305 56.5844 275.025 55.9234 275.025 55.9234L287.296 52.6981L291.469 46.5431H282.187C280.656 46.5431 279.374 47.2834 279.374 47.2834L270.303 52.6968L257.001 55.9393C255 56.4983 255 58.0519 255 58.0519V64.9403C255 64.9403 255.05 66.3281 256.519 66.3281H274.466C273.231 66.3281 273.305 65.315 273.305 65.315Z" fill="white"/>
<path d="M308.163 51.7582C308.163 51.7582 308.135 51.7335 308.104 51.7072C308.121 51.7217 308.139 51.7377 308.163 51.7582Z" fill="#212A52"/>
<path d="M308.099 51.7123C308.081 51.6963 308.066 51.6834 308.056 51.6742C308.068 51.6857 308.084 51.6989 308.099 51.7123Z" fill="#212A52"/>
<path d="M308.068 51.6691C308.064 51.665 308.059 51.6612 308.055 51.6577C308.059 51.6608 308.064 51.665 308.068 51.6691Z" fill="#212A52"/>
<path d="M279.013 47.5067L270.297 52.7077H286.275L289.801 47.5067H279.013Z" fill="#232B62"/>
<path d="M308.163 51.7684L304.05 48.2104C304.05 48.2104 303.227 47.5067 301.617 47.5067H290.822L287.297 52.7077H307.136H307.624C307.624 52.7077 308.329 52.7464 308.365 52.3605C308.365 52.3605 308.457 52.0228 308.163 51.7684Z" fill="#0D051E"/>
<path d="M308.055 51.6583C308.029 51.6354 308.036 51.6415 308.055 51.6583V51.6583Z" fill="#212A52"/>
<path d="M268.099 64.9718C268.099 65.1372 267.966 65.2716 267.803 65.2716H257.823C257.66 65.2716 257.527 65.1372 257.527 64.9718V62.9446C257.527 62.7791 257.66 62.6447 257.823 62.6447H267.803C267.966 62.6447 268.099 62.7791 268.099 62.9446V64.9718Z" fill="#B7B7B8"/>
<path d="M267.872 64.9718C267.872 65.1372 267.739 65.2716 267.576 65.2716H257.596C257.433 65.2716 257.3 65.1372 257.3 64.9718V62.9446C257.3 62.7791 257.433 62.6447 257.596 62.6447H267.576C267.739 62.6447 267.872 62.7791 267.872 62.9446V64.9718Z" fill="#D3D3D4"/>
<path d="M310.594 66.8085C311.476 66.8085 312.19 65.7991 312.19 64.5537C312.19 63.3086 311.476 62.2988 310.594 62.2988C309.713 62.2988 308.998 63.3084 308.998 64.5537C308.998 65.7991 309.713 66.8085 310.594 66.8085Z" fill="#848095"/>
<path d="M308.174 51.7602C308.174 51.7602 308.146 51.7355 308.116 51.7092C308.133 51.7237 308.151 51.7397 308.174 51.7602Z" fill="#0D051E"/>
<path d="M279.964 48.6558C279.437 48.6558 279.06 48.9035 279.06 48.9035L272.778 52.6936H281.012L283.62 48.6556L279.964 48.6558Z" fill="#4D4373"/>
<path d="M308.061 51.6583C308.035 51.6354 308.042 51.6415 308.061 51.6583V51.6583Z" fill="#0D051E"/>
<path d="M275.568 52.6967L279.616 50.0961C279.616 50.0961 280.375 49.5266 281.336 49.5266H288.43L286.282 52.6963L275.568 52.6967Z" fill="#030005"/>
<path d="M274.236 64.9554C274.236 65.1209 274.1 65.2551 273.932 65.2551H269.329C269.161 65.2551 269.025 65.1209 269.025 64.9554V64.8511C269.025 64.6858 269.161 64.5514 269.329 64.5514H273.932C274.1 64.5514 274.236 64.6858 274.236 64.8511V64.9554Z" fill="#D0D0D0"/>
<path d="M304.334 64.9554C304.334 65.1209 304.198 65.2551 304.031 65.2551H291.467C291.299 65.2551 291.163 65.1209 291.163 64.9554V64.8511C291.163 64.6858 291.299 64.5514 291.467 64.5514H304.031C304.198 64.5514 304.334 64.6858 304.334 64.8511V64.9554Z" fill="#7D7D7D"/>
<path d="M268.618 57.0598C268.618 57.1883 268.537 57.2927 268.437 57.2927H257.414C257.314 57.2927 257.234 57.1885 257.234 57.0598V57.0012C257.234 56.8725 257.314 56.7682 257.414 56.7682H268.437C268.537 56.7682 268.618 56.8725 268.618 57.0012V57.0598Z" fill="white"/>
<path d="M276.067 57.6319H273.354H272.835H272.193H270.513C270.513 57.6319 270.472 57.6298 270.405 57.6319H255.074C255.001 57.8813 255 58.053 255 58.053V62.1307H257.223H257.136C257.136 62.1307 257.748 62.1276 258.054 61.7753L258.361 61.3611C258.361 61.3611 258.544 60.9279 259.034 60.9279H266.41C266.41 60.9279 266.783 60.9126 267.023 61.25L267.394 61.7753C267.394 61.7753 267.624 62.1306 267.944 62.1306H269.506H270.513H272.193H273.304H273.564C274.259 62.1306 274.935 61.3437 274.935 61.3437L276.343 59.4328C276.862 58.7957 276.936 58.421 276.936 58.421C276.936 57.5968 276.067 57.6319 276.067 57.6319Z" fill="#333333"/>
<path opacity="0.2" d="M268.956 60.1691C268.956 60.2476 268.893 60.311 268.816 60.311H257.688C257.611 60.311 257.548 60.2476 257.548 60.1691V60.1221C257.548 60.0438 257.611 59.9803 257.688 59.9803H268.816C268.893 59.9803 268.956 60.0438 268.956 60.1221V60.1691Z" fill="#F7F8F8"/>
<path opacity="0.2" d="M268.956 59.255C268.956 59.3335 268.893 59.3969 268.816 59.3969H257.688C257.611 59.3969 257.548 59.3335 257.548 59.255V59.208C257.548 59.1295 257.611 59.0661 257.688 59.0661H268.816C268.893 59.0661 268.956 59.1295 268.956 59.208V59.255Z" fill="#F7F8F8"/>
<path opacity="0.2" d="M268.956 58.3573C268.956 58.4358 268.893 58.4992 268.816 58.4992H257.688C257.611 58.4992 257.548 58.4358 257.548 58.3573V58.3101C257.548 58.2318 257.611 58.1684 257.688 58.1684H268.816C268.893 58.1684 268.956 58.2318 268.956 58.3101V58.3573Z" fill="#F7F8F8"/>
<path d="M255.721 58.2577H255V61.4783H255.721C256.534 61.4783 256.605 60.754 256.605 60.754V58.9436C256.605 58.2061 255.721 58.2577 255.721 58.2577Z" fill="#FFDB5A"/>
<path d="M272.915 58.2577H271.252C271.252 58.2577 270.368 58.206 270.368 58.9436V60.754C270.368 60.754 270.439 61.4783 271.252 61.4783H273.307V58.2577H272.915Z" fill="#FFDB5A"/>
<path d="M275.239 58.2571H273.318V61.4777H273.448C273.945 61.4777 274.429 60.9144 274.429 60.9144L275.437 59.5463C275.809 59.0901 275.862 58.822 275.862 58.822C275.861 58.2319 275.239 58.2571 275.239 58.2571Z" fill="#FEB942"/>
<path d="M272.74 60.0629C272.74 60.2284 272.604 60.3628 272.436 60.3628H270.983C270.815 60.3628 270.679 60.2284 270.679 60.0629V59.024C270.679 58.8587 270.815 58.7243 270.983 58.7243H272.436C272.604 58.7243 272.74 58.8587 272.74 59.024V60.0629Z" fill="#FEF8D8"/>
<path d="M256.395 60.0629C256.395 60.2284 256.259 60.3628 256.091 60.3628H255.516C255.348 60.3628 255.212 60.2284 255.212 60.0629V59.024C255.212 58.8587 255.348 58.7243 255.516 58.7243H256.091C256.259 58.7243 256.395 58.8587 256.395 59.024V60.0629Z" fill="#FEF8D8"/>
<path d="M304.111 59.3239V59.1001C304.111 58.941 303.98 58.8118 303.819 58.8118H303.535C303.475 58.8118 303.42 58.8295 303.374 58.8602C303.325 58.8244 303.266 58.8024 303.201 58.8024H302.227C302.144 58.8024 302.07 58.8366 302.017 58.891C301.965 58.8433 301.895 58.8133 301.819 58.8133H301.538C301.491 58.8133 301.447 58.8254 301.407 58.8448C301.371 58.8289 301.331 58.8198 301.289 58.8198H300.376C300.252 58.8198 300.132 58.8674 300.042 58.9487C299.991 58.866 299.899 58.8101 299.794 58.8101H299.518C299.498 58.8101 299.479 58.8125 299.461 58.816C299.442 58.8125 299.423 58.8101 299.404 58.8101H299.128C299.058 58.8101 298.994 58.8354 298.944 58.8761C298.926 58.8659 298.908 58.855 298.888 58.8469C298.828 58.8235 298.765 58.812 298.701 58.812H298.54L299.367 58.4319L299.417 58.4083C299.45 58.3931 299.483 58.3775 299.504 58.3665C299.583 58.3272 299.644 58.2606 299.676 58.1772C299.709 58.0909 299.707 57.9968 299.669 57.9125C299.658 57.8872 299.643 57.8638 299.624 57.8425C299.466 57.6584 299.282 57.4985 299.076 57.3676C299.061 57.3584 299.046 57.3535 299.03 57.347C299.011 57.3231 298.989 57.3013 298.962 57.2843C298.444 56.9573 297.85 56.7623 297.237 56.7123C297.028 56.4289 296.781 56.1756 296.498 55.9619C296.47 55.9406 296.439 55.9264 296.407 55.9165C296.394 55.9023 296.382 55.8876 296.365 55.8762C295.975 55.5912 295.516 55.3944 295.037 55.3079C295.009 55.3024 294.979 55.3014 294.95 55.305C294.856 55.3159 294.772 55.3624 294.718 55.4297C294.658 55.5007 294.629 55.5937 294.638 55.6859C294.64 55.7052 294.643 55.7298 294.646 55.7557C294.648 55.7723 294.652 55.7907 294.652 55.8019C294.652 55.8121 294.653 55.8221 294.654 55.832C294.683 56.0984 294.893 57.989 294.899 58.0407C294.918 58.1928 295.013 58.3089 295.143 58.3516C295.176 58.3647 295.212 58.3717 295.25 58.3717C295.252 58.3717 295.254 58.3717 295.255 58.3717C295.366 58.3698 295.525 58.3379 295.682 58.2679C295.712 58.278 295.743 58.2833 295.775 58.2833C295.812 58.2833 295.85 58.281 295.89 58.2783C295.921 58.2761 295.953 58.2739 295.991 58.2739C296.064 58.2734 296.14 58.278 296.213 58.2882C296.227 58.29 296.24 58.291 296.254 58.291C296.288 58.291 296.321 58.2835 296.353 58.2721C296.362 58.3139 296.381 58.3534 296.408 58.3877C296.371 58.371 296.331 58.3593 296.288 58.3593H295.649C295.557 58.3593 295.471 58.4018 295.416 58.4741L295.214 58.7388V58.6478C295.214 58.4885 295.083 58.3593 294.922 58.3593H294.394C294.289 58.3593 294.198 58.4138 294.147 58.4957C294.124 58.4768 294.099 58.46 294.07 58.4485C293.841 58.3553 293.597 58.3069 293.345 58.3047C292.62 58.3047 292.241 58.7929 292.241 59.265C292.234 59.4854 292.31 59.6989 292.456 59.8661C292.46 59.8704 292.464 59.875 292.468 59.8791C292.537 59.9484 292.611 60.0105 292.691 60.0657C292.652 60.0595 292.611 60.0612 292.572 60.0709C292.493 60.091 292.427 60.1425 292.388 60.2132L292.168 60.6151C292.092 60.7529 292.142 60.9246 292.279 61.0024C292.554 61.1583 292.866 61.2403 293.178 61.2403C293.189 61.2403 293.2 61.2402 293.211 61.24C293.581 61.24 293.894 61.1133 294.102 60.9042V60.9308C294.102 61.0901 294.233 61.2193 294.394 61.2193H294.412C294.431 61.2209 294.451 61.2216 294.471 61.2216C294.641 61.2216 294.809 61.1635 294.94 61.0586C295.049 60.9721 295.13 60.8601 295.175 60.7301L295.432 61.0723C295.487 61.1456 295.574 61.189 295.667 61.189H296.337C296.449 61.189 296.551 61.1257 296.599 61.0256C296.648 60.9261 296.635 60.8076 296.565 60.7209L295.766 59.7305L296.514 58.8302C296.558 58.7775 296.578 58.7124 296.578 58.6466C296.64 58.7566 296.695 58.8704 296.736 58.9885C296.744 59.0118 296.754 59.0334 296.768 59.0528C296.77 59.0565 296.773 59.0593 296.776 59.0632C296.783 59.1448 296.818 59.2037 296.833 59.227C296.863 59.2849 296.909 59.3329 296.966 59.3657C297.02 59.3969 297.081 59.4129 297.136 59.4129C297.207 59.4138 297.269 59.3989 297.315 59.3746L297.835 59.1353V59.2877C297.835 59.3363 297.848 59.382 297.869 59.4221C297.848 59.4623 297.835 59.5081 297.835 59.5567V60.0565C297.835 60.1874 297.887 60.3109 297.982 60.4044C298.048 60.4694 298.13 60.5126 298.219 60.5333V60.705C298.219 60.8357 298.27 60.9592 298.364 61.0524C298.457 61.1451 298.582 61.1967 298.717 61.1983H299.837C299.998 61.1983 300.129 61.0692 300.129 60.9098V60.7217C300.129 60.6694 300.113 60.6207 300.089 60.5785C300.172 60.6369 300.273 60.6704 300.377 60.6704H301.246V60.9135C301.246 61.0728 301.377 61.2019 301.538 61.2019H301.613C301.678 61.2019 301.742 61.1896 301.805 61.1639C301.865 61.1391 301.919 61.1035 301.968 61.0558C302.014 61.0096 302.05 60.9559 302.075 60.8949C302.091 60.8555 302.1 60.8138 302.105 60.7723C302.115 60.7733 302.125 60.7755 302.135 60.7755C302.135 60.7755 302.394 60.7755 302.394 60.7755C302.685 60.7755 302.96 60.6645 303.167 60.4629C303.194 60.4362 303.22 60.4085 303.244 60.3795V60.912C303.244 61.0713 303.375 61.2003 303.536 61.2003H303.611C303.676 61.2003 303.74 61.1881 303.8 61.1642C303.862 61.1394 303.917 61.1036 303.962 61.0593C304.01 61.0136 304.047 60.9594 304.072 60.9C304.098 60.8406 304.111 60.7743 304.111 60.7087V60.0718C304.239 60.0406 304.333 59.9273 304.333 59.7918V59.6037C304.333 59.4688 304.239 59.3548 304.111 59.3239ZM293.723 59.3336C293.851 59.3152 293.992 59.2526 294.102 59.0968V59.5915C293.985 59.478 293.847 59.3963 293.723 59.3336ZM297.808 57.5132H297.538C297.394 57.5132 297.272 57.5391 297.173 57.5908C297.191 57.5406 297.209 57.4914 297.226 57.4444L297.282 57.2941C297.557 57.3243 297.828 57.39 298.086 57.4888C297.994 57.5047 297.901 57.5127 297.808 57.5132ZM295.255 55.955C295.392 55.998 295.525 56.0522 295.653 56.1165C295.648 56.122 295.643 56.1275 295.639 56.1332C295.516 56.2828 295.445 56.4713 295.439 56.6723C295.439 56.8913 295.517 57.0562 295.581 57.1887C295.628 57.2898 295.666 57.3694 295.667 57.4578C295.667 57.6034 295.559 57.6881 295.453 57.7363C295.404 57.2993 295.301 56.3747 295.255 55.955ZM296.222 56.896C296.179 56.8045 296.153 56.7476 296.15 56.693C296.156 56.6416 296.179 56.5924 296.215 56.5536C296.229 56.5384 296.245 56.5253 296.262 56.5143C296.431 56.6552 296.584 56.813 296.719 56.9855L296.372 57.4046C296.36 57.183 296.281 57.0185 296.222 56.896ZM297.552 58.2554C297.553 58.2361 297.554 58.2211 297.555 58.2092C297.563 58.2087 297.573 58.2083 297.586 58.2083H297.831C298.202 58.2035 298.568 58.1145 298.899 57.9498C298.915 57.9625 298.931 57.9754 298.948 57.9886L297.538 58.6363C297.55 58.5589 297.555 58.481 297.552 58.4028L297.552 58.2554Z" fill="white"/>
<path d="M298.987 60.0737H298.412V59.7578H298.91V59.3049C298.91 59.2783 298.905 59.2519 298.894 59.2269C298.883 59.202 298.868 59.1797 298.849 59.1607C298.829 59.1419 298.806 59.127 298.781 59.1166C298.756 59.1068 298.728 59.1017 298.701 59.1017H298.127V59.2897H298.625V59.5584H298.127V60.0583C298.127 60.1122 298.149 60.1639 298.187 60.2017C298.226 60.24 298.279 60.2615 298.334 60.2615H298.984L298.987 60.0737Z" fill="#FF7A00"/>
<path d="M298.791 60.7175V60.3681H298.51V60.7063C298.51 60.7602 298.532 60.8122 298.57 60.8502C298.609 60.8889 298.662 60.9105 298.717 60.9111H299.836V60.7231L298.791 60.7175Z" fill="#FF7A00"/>
<path d="M299.794 59.0997H299.518V60.3891H299.794V59.0997Z" fill="#FF7A00"/>
<path d="M299.404 59.0997H299.128V59.5656H298.981V59.7539H299.128V60.3851H299.404V59.0997Z" fill="#FF7A00"/>
<path d="M303.819 59.5999V59.1017H303.536V60.9138H303.61C303.638 60.9138 303.665 60.9086 303.69 60.8986C303.715 60.8883 303.738 60.874 303.758 60.8549C303.777 60.836 303.792 60.8135 303.803 60.7886C303.814 60.7642 303.819 60.7371 303.819 60.7103V59.7934H304.041V59.6053L303.819 59.5999Z" fill="#FF7A00"/>
<path d="M302.227 59.2942H302.918V59.597H302.229V59.7852H302.908C302.9 59.9186 302.842 60.0441 302.746 60.139C302.65 60.2332 302.522 60.29 302.385 60.2978H302.135V60.4859H302.392C302.605 60.4864 302.81 60.4038 302.961 60.2563C303.113 60.1086 303.199 59.9081 303.201 59.6984V59.0894H302.227V59.2942Z" fill="#FF7A00"/>
<path d="M301.538 59.1019V59.5984H301.298V59.7867H301.538V60.9139H301.612C301.64 60.9139 301.667 60.9088 301.692 60.8984C301.717 60.888 301.74 60.8729 301.759 60.8539C301.778 60.8348 301.793 60.8122 301.804 60.7874C301.814 60.7628 301.819 60.7357 301.819 60.709V59.1017L301.538 59.1019Z" fill="#FF7A00"/>
<path d="M300.17 59.3034V60.1771C300.17 60.2311 300.191 60.2827 300.23 60.3207C300.269 60.3588 300.321 60.3801 300.376 60.3801H301.289V60.1918H300.451V59.7899H301.138V59.6017H300.451V59.2935H301.289V59.1059H300.376C300.321 59.1059 300.269 59.1273 300.23 59.1651C300.191 59.2033 300.17 59.255 300.17 59.3084" fill="#FF7A00"/>
<path d="M293.452 59.529C293.26 59.4406 293.1 59.3675 293.1 59.2228C293.1 59.1118 293.19 59.0347 293.37 59.0347C293.428 59.0347 293.486 59.0402 293.544 59.0519C293.572 59.0536 293.601 59.0536 293.63 59.0519C293.787 59.0519 293.875 58.9595 293.934 58.7846L293.959 58.7154C293.764 58.6364 293.556 58.5952 293.344 58.5932C292.812 58.5932 292.533 58.9277 292.533 59.2755C292.528 59.4224 292.579 59.5662 292.677 59.6776C292.797 59.7989 292.941 59.8955 293.1 59.9609C293.318 60.0667 293.515 60.1492 293.515 60.2996C293.515 60.4497 293.37 60.5174 293.174 60.5174C292.986 60.5088 292.803 60.4511 292.644 60.3503L292.424 60.7525C292.663 60.888 292.935 60.957 293.211 60.9518C293.706 60.9518 294.081 60.6713 294.081 60.2431C294.081 59.8145 293.733 59.6567 293.452 59.5233" fill="#EA002C"/>
<path d="M295.391 59.729L296.288 58.6488H295.649L294.932 59.5883H294.922V58.6488H294.394V60.9321H294.425C294.544 60.944 294.664 60.9093 294.758 60.835C294.852 60.7607 294.911 60.6531 294.924 60.5357C294.926 60.5079 294.926 60.4806 294.924 60.4528V59.9265H294.935L295.667 60.902H296.336L295.391 59.729Z" fill="#EA002C"/>
<path d="M296.319 56.1924C296.196 56.211 296.084 56.2699 296.001 56.3594C295.917 56.4489 295.867 56.5637 295.858 56.6845C295.858 56.9516 296.08 57.1133 296.082 57.4609C296.083 57.5688 296.055 57.6747 296.001 57.7688C295.947 57.8628 295.869 57.9413 295.775 57.9966C295.838 57.9966 295.909 57.987 295.988 57.987C296.077 57.986 296.166 57.9915 296.254 58.0041L297.086 56.9987C296.878 56.6899 296.619 56.4176 296.321 56.1924" fill="#EA002C"/>
<path d="M297.017 58.9066C297.116 58.6947 297.16 58.4621 297.146 58.23C297.155 57.9875 297.207 57.8034 297.538 57.8034C297.611 57.8034 297.682 57.8034 297.808 57.8034C298.159 57.8017 298.504 57.707 298.805 57.5288C298.289 57.2036 297.695 57.018 297.083 56.9913C297.035 57.1228 296.665 58.1304 296.637 58.2111C296.694 58.2785 296.744 58.3508 296.788 58.4271C296.88 58.5756 296.955 58.7329 297.012 58.8972" fill="#EA002C"/>
<path d="M295.258 58.0838C295.216 58.0838 295.195 58.0556 295.189 58.0087C295.184 57.9617 294.975 56.0877 294.945 55.8042C294.945 55.7627 294.929 55.6876 294.929 55.6613C294.927 55.6449 294.933 55.6287 294.943 55.6161C294.953 55.6034 294.968 55.5952 294.985 55.5932C295.422 55.6727 295.835 55.8494 296.192 56.1101C296.064 56.1423 295.949 56.2149 295.866 56.3165C295.783 56.4181 295.735 56.5436 295.731 56.6741C295.731 56.9823 295.957 57.1514 295.959 57.4596C295.959 57.9633 295.371 58.0837 295.251 58.0855" fill="#FF7A00"/>
<path d="M297.065 59.0393C297.065 59.0577 297.082 59.0768 297.092 59.0957C297.096 59.1048 297.103 59.1126 297.113 59.118C297.122 59.1232 297.133 59.1259 297.143 59.1255C297.16 59.1255 297.176 59.122 297.191 59.1143L299.237 58.1747C299.275 58.1559 299.348 58.1239 299.371 58.1107C299.386 58.1037 299.397 58.0916 299.403 58.0764C299.408 58.0615 299.408 58.0448 299.402 58.0302C299.262 57.8677 299.099 57.7267 298.917 57.611C298.589 57.8087 298.212 57.9158 297.826 57.9211C297.7 57.9211 297.672 57.9211 297.585 57.9211C297.331 57.9211 297.268 58.0284 297.26 58.2463C297.26 58.2874 297.26 58.344 297.26 58.4039C297.267 58.6329 297.2 58.8576 297.069 59.0469" fill="#FF7A00"/>
<path d="M318.011 56.435C317.637 56.435 317.333 56.7347 317.333 57.1044V58.9092C317.333 59.2791 317.637 59.5786 318.011 59.5786H318.456V56.435H318.011Z" fill="#242634"/>
<path d="M318.234 56.8877C318.046 56.8877 317.895 57.0376 317.895 57.2224V58.9041C317.895 59.0888 318.046 59.2388 318.234 59.2388H318.456V56.8877H318.234Z" fill="#FEB942"/>
<path d="M286.368 53.7187L288.791 55.4484H294.055L291.359 53.3152L286.368 53.7187Z" fill="#C1C1C1"/>
<path d="M287.97 51.3236C287.97 51.3236 288.341 50.8336 289.038 50.8336H293.166C293.166 50.8336 293.696 50.8505 293.696 51.3236V53.119C293.696 53.119 293.752 53.7161 293.083 53.7161H286.368L287.97 51.3236Z" fill="#F7F8F8"/>
<path d="M293.696 53.1202V51.3248C293.696 50.9213 293.312 50.85 293.199 50.8375V52.6013C293.199 53.1592 292.676 53.1169 292.676 53.1169H286.77L286.368 53.7173H293.083C293.752 53.7173 293.696 53.1202 293.696 53.1202Z" fill="#242634"/>
<path d="M293.52 52.2624C293.52 52.4067 293.402 52.5238 293.256 52.5238H292.827C292.681 52.5238 292.562 52.4067 292.562 52.2624C292.562 52.1182 292.681 52.001 292.827 52.001H293.256C293.402 52.0012 293.52 52.1182 293.52 52.2624Z" fill="#FEB942"/>
<path d="M339.565 66.1186C339.473 65.166 339.544 64.5465 339.544 64.5465C339.544 60.0283 340.837 56.7992 340.837 56.7992C346.871 50.0946 346.439 35.6923 346.439 35.6923C345.795 30.5514 328.998 30.4434 328.998 30.4434C328.998 30.4434 312.203 30.5518 311.557 35.6923C311.557 35.6923 311.126 50.0942 317.159 56.7992C317.159 56.7992 318.453 60.0283 318.453 64.5465C318.453 64.5465 318.522 65.166 318.43 66.1186C318.403 66.4014 318.349 66.6695 318.288 66.9319H339.708C339.646 66.6695 339.592 66.4018 339.565 66.1186Z" fill="white"/>
<path d="M332.336 34.4718C335.655 32.9667 334.829 31.7756 335.611 30.8884C334.194 30.7202 332.858 30.615 331.762 30.5504C328.927 33.0638 325.346 33.6277 325.346 33.6277C325.346 33.6277 327.893 36.4863 332.336 34.4718Z" fill="#D9D9D6"/>
<path d="M340.744 45.7362L340.219 31.6715L337.805 40.5868H323.407L321.53 30.9931C320.941 31.0727 320.345 31.1625 319.75 31.2665L320.397 37.0395L321.232 63.1264L318.476 65.1446C318.476 65.4029 318.467 65.7304 318.43 66.1171C318.403 66.4003 318.348 66.668 318.287 66.9312H339.708C339.647 66.6684 339.593 66.4003 339.565 66.1171C339.473 65.1645 339.544 64.5458 339.544 64.5458C339.544 60.0276 340.837 56.798 340.837 56.798C342.259 55.2186 343.318 53.2102 344.112 51.0652C340.571 50.3856 340.744 45.7362 340.744 45.7362Z" fill="#CBCBC7"/>
<path d="M340.864 44.0149L345.298 57.0282L352.749 57.2793L348.159 40.3535L340.864 44.0149Z" fill="#FEBE87"/>
<path d="M311.175 35.5733C311.998 33.4 314.438 32.2987 316.628 33.1164C318.82 33.9305 319.93 36.355 319.107 38.5295L316.386 46.9484C315.986 48.0233 313.696 48.1642 311.28 47.2656C308.865 46.3662 307.236 44.7653 307.642 43.6928L311.175 35.5733Z" fill="white"/>
<path d="M332.861 31.5933L331.905 24.608H325.492L324.555 31.5933C324.543 31.683 324.533 31.77 324.533 31.8618C324.533 33.5062 326.398 34.8383 328.698 34.8383C330.999 34.8383 332.861 33.5062 332.861 31.8618C332.861 31.77 332.874 31.683 332.861 31.5933Z" fill="#FEBE87"/>
<path d="M329.564 28.5099C330.829 28.9279 332.045 28.5184 332.606 29.7257L331.912 24.6636L327.081 27.4654C327.081 27.4654 328.303 28.0927 329.564 28.5099Z" fill="#EF7E58"/>
<path d="M337.425 15.5385C337.425 15.5385 336.204 7.61688 328.699 7.61688C321.193 7.61688 319.969 15.5385 319.969 15.5385C318.539 15.6758 318.535 17.0513 318.535 17.0513C318.567 18.2997 319.741 18.5325 319.741 18.5325C319.741 18.5325 320.267 18.608 320.498 19.0845V19.6313C320.498 19.6313 321.06 24.6853 323.426 26.1193C323.426 26.1193 324.988 27.5956 328.698 27.5956C332.409 27.5956 333.971 26.1193 333.971 26.1193C336.337 24.6865 336.899 19.6313 336.899 19.6313V19.0845C337.13 18.6076 337.658 18.5325 337.658 18.5325C337.658 18.5325 338.828 18.2997 338.862 17.0513C338.862 17.0513 338.858 15.6758 337.425 15.5385Z" fill="#FEBE87"/>
<path d="M337.426 15.5378C337.426 15.5378 337.168 13.91 336.193 12.1303L334.634 13.299C334.634 13.299 335.26 14.1014 335.35 15.2071C335.441 16.3129 334.914 17.3862 335.35 18.8519C335.785 20.3156 335.421 25.0137 332.62 26.897C333.54 26.5151 333.971 26.1195 333.971 26.1195C336.337 24.6867 336.899 19.6315 336.899 19.6315V19.0847C337.13 18.6077 337.658 18.5326 337.658 18.5326C337.658 18.5326 338.828 18.2998 338.862 17.0514C338.862 17.0514 338.858 15.6755 337.426 15.5378Z" fill="#FEA85E"/>
<path d="M326.078 22.9179C326.078 21.7163 327.248 22.1075 328.699 22.1075C330.147 22.1075 331.32 21.7163 331.32 22.9179C331.32 24.1191 330.147 25.0929 328.699 25.0929C327.248 25.0929 326.078 24.1191 326.078 22.9179Z" fill="#FDEAD9"/>
<path d="M331.825 18.8531C331.825 18.5728 332.054 18.3465 332.337 18.3465C332.618 18.3465 332.849 18.5728 332.849 18.8531C332.849 19.133 332.618 19.3609 332.337 19.3609C332.053 19.3609 331.825 19.133 331.825 18.8531Z" fill="#552011"/>
<path d="M325.06 19.3601C325.343 19.3601 325.571 19.1326 325.571 18.8523C325.571 18.5716 325.342 18.3445 325.06 18.3445C324.777 18.3445 324.548 18.572 324.548 18.8523C324.548 19.133 324.777 19.3601 325.06 19.3601Z" fill="#552011"/>
<path d="M337.26 10.9246C333.746 3.5498 326.32 5.72276 326.32 5.72276C324.777 6.15053 324.115 7.10234 324.115 7.10234L319.537 15.6333C320.368 15.5606 320.377 16.5071 320.464 16.9938C320.551 17.4796 320.665 17.8522 321.07 17.8522C321.472 17.8522 321.386 16.1655 321.386 16.1655C321.616 12.8481 324.691 12.3887 324.691 12.3887C324.691 12.3887 325.847 12.16 327.144 12.3887C328.441 12.6178 328.7 12.5447 328.7 12.5447C328.7 12.5447 328.961 12.6178 330.26 12.3887C331.556 12.16 332.711 12.3887 332.711 12.3887C332.711 12.3887 335.785 12.8485 336.015 16.1655C336.015 16.1655 335.929 17.8522 336.332 17.8522C336.736 17.8522 336.851 17.4796 336.937 16.9938C337.013 16.5815 337.036 15.8433 337.547 15.6715L337.865 15.6341L338.067 15.7202C338.172 13.0143 337.26 10.9246 337.26 10.9246Z" fill="#552011"/>
<path d="M313.771 47.1138C313.825 47.3409 314.053 47.4843 314.283 47.4311C314.512 47.3795 314.656 47.1516 314.604 46.9225L311.5 33.5845C311.447 33.3574 311.217 33.2161 310.987 33.2693C310.757 33.3205 310.616 33.5471 310.669 33.7762L313.771 47.1138Z" fill="#552011"/>
<path opacity="0.5" d="M323.566 22.7739C324.074 22.7739 324.487 22.3644 324.487 21.8599C324.487 21.3541 324.074 20.945 323.566 20.945C323.058 20.945 322.644 21.3541 322.644 21.8599C322.644 22.3644 323.058 22.7739 323.566 22.7739Z" fill="#F08900"/>
<path opacity="0.5" d="M333.832 22.7739C334.34 22.7739 334.752 22.3644 334.752 21.8599C334.752 21.3541 334.34 20.945 333.832 20.945C333.322 20.945 332.91 21.3541 332.91 21.8599C332.91 22.3644 333.322 22.7739 333.832 22.7739Z" fill="#F08900"/>
<path d="M346.807 54.1266L344.322 54.2566L341.839 46.7677L343.828 45.6802L346.807 54.1266Z" fill="#FEA85E"/>
<path d="M350.352 43.6924L346.821 35.5734C345.996 33.4 343.557 32.2991 341.365 33.116C340.967 33.2647 340.617 33.4804 340.294 33.7254L340.682 44.0844L341.605 46.9484C342.009 48.0229 344.3 48.1643 346.712 47.2657C349.13 46.3667 350.761 44.7653 350.352 43.6924Z" fill="white"/>
<path d="M343.039 54.4359C343.57 52.952 343.378 52.8362 343.378 52.8362C338.229 52.0737 339 43.1637 339 43.1637C338.942 42.6648 338.727 42.3114 338.441 42.0607L340.262 31.4178C339.102 31.1131 336.763 30.7316 336.763 30.7316L335.55 41.4863H330.095L328.998 41.4693L327.9 41.4863H322.445L321.232 30.7316C321.232 30.7316 318.893 31.1131 317.733 31.4178L319.554 42.0607C319.267 42.3114 319.053 42.6648 318.996 43.1637C318.996 43.1637 319.766 52.0737 314.616 52.8362C314.616 52.8362 314.426 52.9524 314.957 54.4359C314.957 54.4359 317.289 62.2231 316.157 65.5652C315.024 68.9069 314.427 71.653 314.957 75.8872L318.229 106.994L318.237 106.954C318.526 109.092 320.35 110.75 322.587 110.754C324.941 110.762 326.85 108.934 326.989 106.63L326.997 106.77L328.998 82.3029L330.999 106.77L331.006 106.63C331.145 108.934 333.055 110.762 335.409 110.754C337.644 110.75 339.469 109.092 339.758 106.954L339.768 106.994L343.04 75.8872C343.57 71.653 342.971 68.9077 341.839 65.5652C340.706 62.2227 343.039 54.4359 343.039 54.4359Z" fill="#294478"/>
<path d="M343.379 52.8362C338.229 52.0737 339 43.1637 339 43.1637C338.942 42.6648 338.727 42.3114 338.441 42.0608L340.262 31.4178C339.102 31.1131 336.762 30.7316 336.762 30.7316L335.55 41.4863H334.384L333.831 46.8876C333.831 46.8876 332.917 54.4457 335.926 58.6437C338.936 62.843 338.712 68.6968 338.075 82.3029L336.09 110.69C338.005 110.388 339.497 108.868 339.757 106.954L339.766 106.994L343.039 75.8868C343.568 71.653 342.97 68.9069 341.838 65.5656C340.706 62.2235 343.039 54.4363 343.039 54.4363C343.57 52.9523 343.379 52.8362 343.379 52.8362Z" fill="#142953"/>
<path d="M322.068 43.4768C322.068 43.9346 321.694 44.3059 321.232 44.3059C320.769 44.3059 320.396 43.9346 320.396 43.4768C320.396 43.0185 320.769 42.6472 321.232 42.6472C321.694 42.6472 322.068 43.0189 322.068 43.4768Z" fill="white"/>
<path d="M335.928 43.4768C335.928 43.9346 336.3 44.3059 336.763 44.3059C337.223 44.3059 337.6 43.9346 337.6 43.4768C337.6 43.0185 337.223 42.6472 336.763 42.6472C336.3 42.6472 335.928 43.0189 335.928 43.4768Z" fill="white"/>
<path d="M328.997 82.3034V78.4015L324.469 75.4868L328.138 92.8237L328.997 82.3034Z" fill="#142953"/>
<path d="M335.516 46.8868H324.469V47.5201H335.516V46.8868Z" fill="#142953"/>
<path d="M309.983 43.6618C309.983 43.6618 309.451 43.3023 309.663 42.3716C309.876 41.4405 310.303 41.3771 310.772 41.4405C310.772 41.4405 312.1 41.5051 313.471 42.4354L313.53 41.7131C313.53 41.7131 313.606 41.2715 314.118 41.3138C314.629 41.356 315.034 41.4405 315.034 41.4405C315.034 41.4405 316.079 41.4409 315.034 43.3872L309.983 43.6618Z" fill="#FEBE87"/>
<path d="M320.187 44.8799L327.553 64.8118C327.553 64.8118 328.704 67.1968 326.078 67.1968H310.944C310.944 67.1968 308.403 67.2659 307.579 65.0686L300.244 45.5221C300.244 45.5221 299.128 43.0591 301.951 43.0591H317.111C317.111 43.0591 319.505 43.0331 320.187 44.8799Z" fill="#F4F4F4"/>
<path d="M327.553 64.8114L320.187 44.8799C319.598 43.2866 317.738 43.088 317.239 43.0632L326.078 66.4278H308.584C309.629 67.2273 310.944 67.1964 310.944 67.1964H326.078C328.704 67.1964 327.553 64.8114 327.553 64.8114Z" fill="#E0E0E0"/>
<path d="M352.749 57.275C352.229 55.3197 350.45 54.045 348.503 54.0458L348.506 54.034L348.382 54.0417C348.305 54.0425 348.231 54.0466 348.156 54.0523L328.539 55.0918C327.285 55.1247 326.787 54.5032 326.776 54.489L325.438 52.771C325.438 52.771 324.605 51.6506 322.864 52.3148L323.143 53.0594C323.143 53.0594 323.261 53.5453 322.826 53.7468L318.644 55.6699C318.644 55.6699 317.572 56.1086 317.866 56.8634C317.866 56.8634 317.94 57.3846 318.86 57.8217C318.86 57.8217 321.161 59.0953 322.46 60.1223C322.46 60.1223 324.119 61.3897 325.993 60.6508C325.993 60.6508 326.605 60.431 327.276 60.0382C327.297 60.0276 328.095 59.6092 328.783 59.727L347.593 62.6425L347.594 62.6267C348.247 62.7669 348.937 62.7786 349.625 62.5983C351.97 61.9832 353.368 59.6023 352.749 57.275Z" fill="#FEBE87"/>
<path d="M334.905 58.9141C330.669 58.098 328.139 58.098 327.064 58.6009C325.989 59.103 325.294 59.6673 323.65 58.6009C322.006 57.5337 321.057 57.4708 319.666 56.9691C318.294 56.4735 318.197 55.9624 318.195 55.9486C317.944 56.1521 317.709 56.4617 317.866 56.8655C317.866 56.8655 317.94 57.3871 318.86 57.8238C318.86 57.8238 321.161 59.0982 322.459 60.1247C322.459 60.1247 324.119 61.3926 325.993 60.6536C325.993 60.6536 326.605 60.4335 327.276 60.0402C327.297 60.0305 328.095 59.6116 328.783 59.7294L347.593 62.6446L347.594 62.6296C348.247 62.7689 348.936 62.7803 349.625 62.6011C350.641 62.335 351.461 61.7269 352.036 60.9473C349.232 63.085 339.123 59.7266 334.905 58.9141Z" fill="#FEA85E"/>
<path d="M312.407 43.0591H305.335L306.278 45.5729C306.278 45.5729 306.524 46.1441 307.255 46.1441H312.904C312.904 46.1441 313.519 46.1323 313.307 45.5091L312.407 43.0591Z" fill="#999999"/>
<path d="M322.882 16.8006C322.882 16.8006 327.7 14.4351 331.024 16.1921C334.348 17.949 334.928 17.6391 335.35 18.8545L335.742 15.9349C335.742 15.9349 326.225 11.6036 322.882 16.8006Z" fill="#FEA85E"/>
<path d="M336.914 9.41511H336.908C335.758 6.79407 332.567 4.90833 328.807 4.90833C325.043 4.90833 321.858 6.79448 320.705 9.41511H320.701C319.718 10.9677 319.456 15.36 319.456 15.36L321.529 15.0728L328.807 14.0686L336.086 15.0728L338.156 15.36C338.156 15.36 337.896 10.9673 336.914 9.41511Z" fill="#294478"/>
<path d="M338.156 15.3591C338.156 15.3591 337.896 10.9664 336.914 9.41419H336.908C335.757 6.79316 332.567 4.90741 328.807 4.90741C328.807 4.90741 334.308 5.78895 334.266 13.7418L334.226 14.8163L336.085 15.0727L338.156 15.3591Z" fill="#142953"/>
<path d="M338.121 15.3195C335.49 13.2152 328.791 13.3802 328.791 13.3802C328.791 13.3802 322.089 13.2156 319.456 15.3195C319.456 15.3195 319.209 17.001 321.506 17.0859C323.806 17.1712 324.67 14.5534 328.791 14.6363C332.907 14.5534 333.774 17.1712 336.072 17.0859C338.368 17.001 338.121 15.3195 338.121 15.3195Z" fill="#142953"/>
</g>
</svg>
