<svg width="760" height="100" viewBox="0 0 760 100" fill="none" xmlns="http://www.w3.org/2000/svg">
<rect width="760" height="100" rx="12" fill="#F4F4F4"/>
<path d="M60.0859 33.5078V35.9219H51.8359V37.4922C55.5508 37.7734 57.7422 39.1094 57.7656 41.3125C57.7422 43.7734 54.9531 45.1562 50.3359 45.1562C45.6484 45.1562 42.8594 43.7734 42.8594 41.3125C42.8594 39.0977 45.0742 37.7617 48.8594 37.4922V35.9219H40.6328V33.5078H60.0859ZM50.3359 39.6953C47.3828 39.7188 45.8828 40.2344 45.9062 41.3125C45.8828 42.3438 47.3828 42.9062 50.3359 42.9062C53.2188 42.9062 54.7422 42.3438 54.7656 41.3125C54.7422 40.2344 53.2188 39.7188 50.3359 39.6953ZM58.3281 24.7422V27.0859H52.5391C53.043 28.5859 55.2109 30.0273 59.2656 30.3672L58.2109 32.7109C54.1914 32.3242 51.4727 30.8008 50.3359 28.7266C49.2109 30.8008 46.5391 32.3242 42.4844 32.7109L41.5 30.3672C45.4492 30.0273 47.6289 28.5742 48.1797 27.0859H42.4141V24.7422H58.3281ZM78.9531 25.6797V27.6953C78.9531 30.3672 78.9531 33.3672 78.0859 37.8906L75.0859 37.5859C75.8945 33.5547 75.9297 30.5547 75.9531 28.0469H63.3906V25.6797H78.9531ZM80.8281 40.1172V42.5547H61.375V40.1172H68.3359V32.7812H71.3125V40.1172H80.8281ZM89.8281 30.5078C89.8281 33.5312 91.3984 36.9766 94.7969 38.5703L93.1328 40.8203C90.8594 39.8008 89.2773 37.7852 88.375 35.4062C87.4609 37.9727 85.7734 40.1406 83.3594 41.1953L81.7188 38.875C85.1875 37.3516 86.8516 33.7188 86.875 30.5078V29.6875H82.4688V27.2969H86.8516V24.2969H89.8516V27.2969H94.1875V29.6875H89.8281V30.5078ZM98.9453 23.8281V32.1016H102.086V34.6094H98.9453V45.1562H95.9453V23.8281H98.9453ZM120.25 33.3672V35.7344H114.062V40.2812H122.383V42.7188H102.859V40.2812H111.086V35.7344H105.156V25.3281H120.086V27.7188H108.156V33.3672H120.25Z" fill="#EA002C"/>
<path d="M146.992 23.8516V39.4141H143.992V23.8516H146.992ZM147.555 42.3906V44.7812H132.695V37.9141H135.719V42.3906H147.555ZM137.312 27.0859C137.289 29.8984 138.789 32.6641 142.305 33.7891L140.781 36.1328C138.379 35.3359 136.715 33.7422 135.766 31.7031C134.816 33.8945 133.105 35.6523 130.609 36.5078L129.062 34.1406C132.648 32.9453 134.195 29.9688 134.195 27.0859V25.0234H137.312V27.0859ZM157.586 30.5078C157.586 33.5312 159.156 36.9766 162.555 38.5703L160.891 40.8203C158.617 39.8008 157.035 37.7852 156.133 35.4062C155.219 37.9727 153.531 40.1406 151.117 41.1953L149.477 38.875C152.945 37.3516 154.609 33.7188 154.633 30.5078V29.6875H150.227V27.2969H154.609V24.2969H157.609V27.2969H161.945V29.6875H157.586V30.5078ZM166.703 23.8281V32.1016H169.844V34.6094H166.703V45.1562H163.703V23.8281H166.703ZM188.641 23.8281V45.2031H185.641V34.4219H181.797V32.0312H185.641V23.8281H188.641ZM178.609 30.5078C178.609 33.6016 180.297 37.0469 183.789 38.5469L182.195 40.8438C179.77 39.8359 178.082 37.7969 177.156 35.3594C176.219 37.9492 174.543 40.1289 172.094 41.1719L170.523 38.875C173.945 37.3516 175.609 33.7188 175.633 30.5078V29.6875H171.203V27.2969H175.633V24.2969H178.633V27.2969H182.945V29.6875H178.609V30.5078ZM209.336 37.3047V44.9219H194.922V37.3047H209.336ZM197.898 39.6016V42.5312H206.383V39.6016H197.898ZM209.336 23.8516V36.3672H206.359V30.6719H202.914V28.2578H206.359V23.8516H209.336ZM201.836 24.8125V31.3516H195.156V33.3672C198.391 33.3438 200.711 33.2383 203.383 32.8047L203.594 35.2188C200.547 35.7344 197.875 35.8047 193.938 35.7812H192.203V29.1016H198.906V27.2266H192.156V24.8125H201.836ZM216.953 26.0312L216.648 37.9141H213.648L213.344 26.0312H216.953ZM215.172 43.2109C214.07 43.2109 213.18 42.3203 213.203 41.2422C213.18 40.1641 214.07 39.2969 215.172 39.2969C216.203 39.2969 217.117 40.1641 217.117 41.2422C217.117 42.3203 216.203 43.2109 215.172 43.2109Z" fill="#FA4E29"/>
<path d="M45.2559 64.1895C45.2559 66.0352 46.4863 67.8457 48.4727 68.5664L47.8047 69.6387C46.2754 69.0322 45.1943 67.8633 44.6406 66.4395C44.0957 67.9863 42.9971 69.2607 41.4414 69.9199L40.7559 68.8828C42.7422 68.0566 43.9375 66.1758 43.9551 64.1895V63.9961H41.0723V62.8711H43.9551V60.9902H45.2559V62.8711H48.0859V63.9961H45.2559V64.1895ZM53.9043 60.8145V70.377H52.5859V66.1406H50.5469V70.3066H49.2109V61.0957H50.5469V64.998H52.5859V60.8145H53.9043ZM53.9043 71.2207V76.4238H52.5508V72.3457H43.375V71.2207H53.9043ZM69.0918 60.8145V69.7441H67.7207V60.8145H69.0918ZM69.0918 70.5879V76.2129H58.9316V70.5879H69.0918ZM60.2852 71.7129V75.0879H67.7383V71.7129H60.2852ZM60.6543 61.6406C63.0273 61.6406 64.75 63.1172 64.75 65.2969C64.75 67.4414 63.0273 68.9355 60.6543 68.9355C58.2812 68.9355 56.5586 67.4414 56.5586 65.2969C56.5586 63.1172 58.2812 61.6406 60.6543 61.6406ZM60.6543 62.8184C59.0547 62.8008 57.8945 63.8379 57.9121 65.2969C57.8945 66.7383 59.0547 67.7578 60.6543 67.7578C62.2363 67.7578 63.3965 66.7383 63.3965 65.2969C63.3965 63.8379 62.2363 62.8008 60.6543 62.8184ZM77.3359 65.5957C77.3359 68.25 79.2695 70.9395 81.5723 71.9414L80.7988 73.0312C78.9707 72.1963 77.3887 70.3945 76.668 68.2324C75.9297 70.5264 74.3564 72.5215 72.5723 73.418L71.7461 72.3281C73.9785 71.2559 75.9297 68.3027 75.9473 65.5957V63.5566H72.2559V62.4141H81.0625V63.5566H77.3359V65.5957ZM84.6309 60.7969V76.4238H83.2422V60.7969H84.6309ZM99.9414 65.543V66.6504H89.2363V61.377H90.6074V65.543H99.9414ZM101.594 68.7773V69.9023H87.2852V68.7773H101.594ZM100.029 74.8945V76.0371H89.1484V71.502H90.5195V74.8945H100.029ZM115.094 65.4727C114.953 64.2246 113.811 63.5039 112.281 63.5039C110.594 63.5039 109.486 64.3828 109.486 65.5957C109.486 66.9316 110.98 67.4238 111.947 67.6699L113.213 68.0215C114.584 68.373 116.816 69.1641 116.816 71.5371C116.816 73.6113 115.146 75.2285 112.193 75.2285C109.451 75.2285 107.746 73.8047 107.605 71.6953H109.223C109.363 73.1191 110.682 73.7871 112.193 73.7871C113.951 73.7871 115.27 72.8906 115.27 71.502C115.27 70.2715 114.092 69.7969 112.756 69.4102L111.191 68.9883C109.188 68.4082 107.957 67.3887 107.957 65.666C107.957 63.5215 109.873 62.0977 112.334 62.0977C114.795 62.0977 116.57 63.5391 116.641 65.4727H115.094ZM119.084 75V62.2734H120.666V68.5664H120.824L126.484 62.2734H128.559L123.232 68.0215L128.559 75H126.625L122.248 69.1113L120.666 70.9043V75H119.084ZM142.393 60.8145V72.2402H141.021V60.8145H142.393ZM142.885 74.9297V76.0898H132.303V71.0801H133.674V74.9297H142.885ZM133.955 61.9043C136.293 61.9043 138.051 63.4863 138.051 65.7363C138.051 68.0215 136.293 69.5859 133.955 69.5859C131.617 69.5859 129.859 68.0215 129.859 65.7363C129.859 63.4863 131.617 61.9043 133.955 61.9043ZM133.955 63.1172C132.373 63.1172 131.195 64.207 131.213 65.7363C131.195 67.3008 132.373 68.373 133.955 68.373C135.502 68.373 136.697 67.3008 136.697 65.7363C136.697 64.207 135.502 63.1172 133.955 63.1172ZM159.285 68.2324V69.375H145.047V68.2324H159.285ZM152.166 70.7461C155.523 70.7461 157.527 71.7832 157.545 73.5762C157.527 75.3867 155.523 76.3887 152.166 76.3887C148.791 76.3887 146.77 75.3867 146.77 73.5762C146.77 71.7832 148.791 70.7461 152.166 70.7461ZM152.166 71.8359C149.652 71.8535 148.158 72.4688 148.176 73.5762C148.158 74.666 149.652 75.2812 152.166 75.2812C154.645 75.2812 156.156 74.666 156.156 73.5762C156.156 72.4688 154.645 71.8535 152.166 71.8359ZM158.02 61.6055V62.748H153.062C153.115 64.5234 155.717 65.877 158.494 66.1934L157.984 67.3008C155.427 66.9756 153.027 65.833 152.166 64.084C151.313 65.833 148.923 66.9756 146.348 67.3008L145.855 66.1934C148.58 65.877 151.199 64.5234 151.27 62.748H146.348V61.6055H158.02ZM178.006 60.7969V68.9004H176.652V60.7969H178.006ZM178.023 69.6914V73.4355H169.252V75.123H178.586V76.248H167.898V72.3633H176.652V70.7988H167.863V69.6914H178.023ZM170.658 62.4492C170.641 64.6641 172.328 66.6152 174.648 67.3711L173.963 68.4434C172.135 67.8193 170.676 66.5098 169.973 64.8223C169.27 66.6416 167.802 68.0742 165.947 68.7422L165.227 67.6523C167.582 66.8262 169.252 64.752 169.252 62.4492V61.2539H170.658V62.4492ZM186.232 64.998C186.215 67.8457 188.166 70.7285 190.469 71.7656L189.625 72.8555C187.85 71.9854 186.312 70.1484 185.564 67.916C184.835 70.2803 183.297 72.249 181.469 73.1719L180.59 72.0117C182.91 70.9395 184.844 67.9688 184.861 64.998V62.1504H186.232V64.998ZM193.562 60.7969V76.459H192.174V60.7969H193.562Z" fill="#50555C"/>
<mask id="mask0_116_3640" style="mask-type:alpha" maskUnits="userSpaceOnUse" x="552" y="3" width="168" height="94">
<rect x="552" y="3" width="168" height="94" fill="#D9D9D9"/>
</mask>
<g mask="url(#mask0_116_3640)">
<rect opacity="0.6" x="600.266" y="89.161" width="68.6535" height="2.20006" rx="1.10003" fill="#747474"/>
<path d="M610.378 86.782H620.423V84.4084H610.135L610.378 86.782Z" fill="#242634"/>
<path d="M638.791 74.5229H621.308V85.4073H638.791V74.5229Z" fill="#181936"/>
<path d="M667.964 74.5229H653.917V85.4073H667.964V74.5229Z" fill="#181936"/>
<path d="M629.089 83.2774C629.089 81.9726 628.812 80.7497 628.331 79.6971V76.1176H624.722V76.14C621.626 76.14 619.116 79.3357 619.116 83.2778C619.116 87.2193 621.626 90.4154 624.722 90.4154H628.331V86.8583C628.812 85.8049 629.089 84.5826 629.089 83.2774Z" fill="#242634"/>
<path d="M627.819 90.4325C630.915 90.4325 633.425 87.2366 633.425 83.2947C633.425 79.3528 630.915 76.1569 627.819 76.1569C624.722 76.1569 622.212 79.3528 622.212 83.2947C622.212 87.2368 624.722 90.4325 627.819 90.4325Z" fill="#2E303F"/>
<path d="M628.412 88.1363C630.302 88.1363 631.834 85.9714 631.834 83.3007C631.834 80.6301 630.302 78.4652 628.412 78.4652C626.522 78.4652 624.989 80.6301 624.989 83.3007C624.989 85.9714 626.522 88.1363 628.412 88.1363Z" fill="#E1E2F1"/>
<path d="M628.736 85.9811C629.789 85.9811 630.643 84.7747 630.643 83.2862C630.643 81.7982 629.789 80.5914 628.736 80.5914C627.683 80.5914 626.829 81.798 626.829 83.2862C626.829 84.7747 627.683 85.9811 628.736 85.9811Z" fill="#848095"/>
<path d="M613.564 82.594C613.564 78.7881 611.935 75.6646 609.856 75.328L608.521 75.2734H607.661V75.2966C605.408 75.2966 603.581 78.5637 603.581 82.594C603.581 86.6237 605.408 89.8914 607.661 89.8914H609.856C611.935 89.5546 613.564 86.3997 613.564 82.594Z" fill="#242634"/>
<path d="M661.941 83.2774C661.941 81.9726 661.664 80.7497 661.184 79.6971V76.1176H657.574V76.14C654.478 76.14 651.968 79.3357 651.968 83.2778C651.968 87.2193 654.478 90.4154 657.574 90.4154H661.184V86.8583C661.664 85.8049 661.941 84.5826 661.941 83.2774Z" fill="#242634"/>
<path d="M660.682 90.4325C663.779 90.4325 666.289 87.2366 666.289 83.2947C666.289 79.3528 663.779 76.1569 660.682 76.1569C657.586 76.1569 655.076 79.3528 655.076 83.2947C655.076 87.2368 657.586 90.4325 660.682 90.4325Z" fill="#2E303F"/>
<path d="M661.273 88.1363C663.163 88.1363 664.695 85.9714 664.695 83.3007C664.695 80.6301 663.163 78.4652 661.273 78.4652C659.383 78.4652 657.851 80.6301 657.851 83.3007C657.851 85.9714 659.383 88.1363 661.273 88.1363Z" fill="#E1E2F1"/>
<path d="M668.666 84.2555V78.6725C668.666 78.2245 668.283 77.8365 668.283 77.8365C667.958 77.5677 667.958 76.9406 667.958 76.9406V75.5154C667.958 72.6571 664.516 71.5963 664.516 71.5963L656.308 64.4907C653.474 61.9826 650.64 61.7606 650.64 61.7606H628.911C627.081 61.7606 624.131 62.6454 624.131 62.6454L613.289 69.1152L597.392 72.9905C595 73.6586 595 75.5154 595 75.5154V83.748C595 83.748 595.059 85.4067 596.816 85.4067H622.105C622.707 85.4067 622.799 84.7239 622.799 84.7239V83.0362C622.799 78.9469 625.436 75.6318 628.689 75.6318C631.942 75.6318 634.579 78.9467 634.579 83.0362V85.4065H655.664V83.0362C655.664 78.9469 658.301 75.6318 661.554 75.6318C664.807 75.6318 667.444 78.9467 667.444 83.0362V85.4065H667.528C668.693 85.4067 668.666 84.2555 668.666 84.2555Z" fill="#F2F2F2"/>
<path d="M671.404 77.982H671.174C670.855 77.982 670.843 77.6163 670.843 77.6163V73.3024C670.843 71.5422 669.192 70.952 669.192 70.952L663.585 69.2317C661.625 68.6303 659.305 67.0825 659.301 67.0797L656.308 64.4884C653.474 61.9803 650.64 61.7583 650.64 61.7583H628.911C627.081 61.7583 624.131 62.6431 624.131 62.6431L613.289 69.1129L597.392 72.9882C595 73.6564 595 75.5133 595 75.5133V83.7459C595 83.7459 595.059 85.4046 596.816 85.4046H622.105C622.707 85.4046 622.799 84.7217 622.799 84.7217V83.0341C622.799 78.9448 625.436 75.6297 628.689 75.6297C631.942 75.6297 634.579 78.9446 634.579 83.0341V85.4044H655.664V83.0341C655.664 78.9448 658.301 75.6297 661.554 75.6297C664.807 75.6297 667.444 78.9446 667.444 83.0341V85.4044H667.097L667.097 85.4048H668.389C668.398 85.405 668.405 85.4072 668.413 85.4072H670.944C671.392 85.4072 671.755 85.049 671.755 84.6071V79.0242V78.8356V78.2926C671.755 77.9774 671.404 77.982 671.404 77.982Z" fill="#F2F2F2"/>
<path d="M671.404 77.9818H671.174C670.855 77.9818 670.843 77.6162 670.843 77.6162V73.3025C670.843 71.5422 669.191 70.952 669.191 70.952L663.584 69.2316C661.831 68.6938 659.791 67.3991 659.377 67.1299L656.326 64.4884C653.493 61.9804 650.658 61.7584 650.658 61.7584H638.604L633.618 69.1144L618.952 72.9691C618.952 72.9691 616.896 73.7593 616.896 75.5129V84.1934C616.896 84.1934 616.807 85.4042 618.283 85.4042H622.124C622.726 85.4042 622.818 84.7214 622.818 84.7214V83.0338C622.818 78.9444 625.455 75.6294 628.708 75.6294C631.961 75.6294 634.598 78.9442 634.598 83.0338V85.404H655.682V83.0338C655.682 78.9444 658.319 75.6294 661.572 75.6294C664.825 75.6294 667.462 78.9442 667.462 83.0338V85.404H667.097L667.097 85.4044H668.389C668.397 85.4046 668.405 85.4068 668.413 85.4068H670.944C671.392 85.4068 671.754 85.0486 671.754 84.6068V79.0238V78.8352V78.2922C671.754 77.9772 671.404 77.9818 671.404 77.9818Z" fill="#EBEBEB"/>
<path d="M671.404 77.9819H671.174C670.855 77.9819 670.843 77.6163 670.843 77.6163V75.0626H667.962C667.961 75.0464 667.962 75.0286 674.036 75.0126H621.006C614.892 75.1708 616.896 75.3378 616.896 75.5158V84.1963C616.896 84.1963 616.807 85.4069 618.283 85.4069H622.124C622.726 85.4069 622.818 84.7243 622.818 84.7243V83.0367C622.818 78.9475 625.455 75.6323 628.708 75.6323C631.961 75.6323 634.598 78.9475 634.598 83.0367V85.4067H655.682V83.0367C655.682 78.9475 658.319 75.6323 661.572 75.6323C664.825 75.6323 667.462 78.9475 667.462 83.0367V85.4067H667.547C667.558 85.4067 667.567 85.4049 667.578 85.4047H668.389C668.397 85.4049 668.405 85.4071 668.413 85.4071H670.944C671.392 85.4071 671.754 85.0489 671.754 84.6071V79.0241V78.8355V78.2925C671.755 77.9773 671.404 77.9819 671.404 77.9819Z" fill="#D0D0D0"/>
<path d="M616.877 84.1958V75.5154C616.877 73.7616 618.933 72.9715 618.933 72.9715L633.599 69.1168L638.586 61.7606H627.493C625.663 61.7606 624.131 62.6454 624.131 62.6454L613.289 69.1152L597.392 72.9905C595 73.6586 595 75.5154 595 75.5154V83.748C595 83.748 595.059 85.4067 596.816 85.4067H618.265C616.789 85.4067 616.877 84.1958 616.877 84.1958Z" fill="white"/>
<path d="M658.537 67.9931C658.537 67.9931 658.504 67.9638 658.468 67.9326C658.487 67.9498 658.509 67.9688 658.537 67.9931Z" fill="#212A52"/>
<path d="M658.462 67.9389C658.44 67.9198 658.423 67.9044 658.41 67.8934C658.425 67.9071 658.443 67.9229 658.462 67.9389Z" fill="#212A52"/>
<path d="M658.423 67.886C658.419 67.8815 658.413 67.8774 658.409 67.8736C658.413 67.877 658.418 67.8815 658.423 67.886Z" fill="#212A52"/>
<path d="M623.699 62.9124L613.282 69.1284H632.379L636.592 62.9124H623.699Z" fill="#232B62"/>
<path d="M658.538 68.0058L653.622 63.7534C653.622 63.7534 652.638 62.9124 650.714 62.9124H637.813L633.6 69.1284H657.311H657.894C657.894 69.1284 658.737 69.1746 658.78 68.7134C658.78 68.7134 658.889 68.3098 658.538 68.0058Z" fill="#0D051E"/>
<path d="M658.408 67.8733C658.379 67.8475 658.386 67.8544 658.408 67.8733V67.8733Z" fill="#212A52"/>
<path d="M610.656 83.7862C610.656 83.9838 610.497 84.1444 610.302 84.1444H598.374C598.179 84.1444 598.02 83.9838 598.02 83.7862V81.3634C598.02 81.1655 598.179 81.0049 598.374 81.0049H610.302C610.497 81.0049 610.656 81.1655 610.656 81.3634V83.7862Z" fill="#B7B7B8"/>
<path d="M610.384 83.7862C610.384 83.9838 610.225 84.1444 610.03 84.1444H598.103C597.907 84.1444 597.749 83.9838 597.749 83.7862V81.3634C597.749 81.1655 597.907 81.0049 598.103 81.0049H610.03C610.225 81.0049 610.384 81.1655 610.384 81.3634V83.7862Z" fill="#D3D3D4"/>
<path d="M661.443 85.9811C662.497 85.9811 663.351 84.7747 663.351 83.2862C663.351 81.7982 662.497 80.5914 661.443 80.5914C660.39 80.5914 659.536 81.798 659.536 83.2862C659.536 84.7747 660.39 85.9811 661.443 85.9811Z" fill="#848095"/>
<path d="M658.551 67.9956C658.551 67.9956 658.518 67.9663 658.482 67.9352C658.501 67.9524 658.524 67.9714 658.551 67.9956Z" fill="#0D051E"/>
<path d="M624.836 64.2861C624.206 64.2861 623.755 64.5821 623.755 64.5821L616.248 69.1118H626.088L629.205 64.2859L624.836 64.2861Z" fill="#4D4373"/>
<path d="M658.415 67.8735C658.386 67.8474 658.393 67.8544 658.415 67.8735V67.8735Z" fill="#0D051E"/>
<path d="M619.583 69.1153L624.419 66.0072C624.419 66.0072 625.327 65.3266 626.475 65.3266H634.954L632.386 69.1149L619.583 69.1153Z" fill="#030005"/>
<path d="M617.989 83.7663C617.989 83.9641 617.827 84.1245 617.626 84.1245H612.125C611.924 84.1245 611.762 83.9641 611.762 83.7663V83.6416C611.762 83.444 611.924 83.2834 612.125 83.2834H617.626C617.827 83.2834 617.989 83.444 617.989 83.6416V83.7663Z" fill="#D0D0D0"/>
<path d="M653.962 83.7663C653.962 83.9641 653.799 84.1245 653.599 84.1245H638.583C638.383 84.1245 638.22 83.9641 638.22 83.7663V83.6416C638.22 83.444 638.383 83.2834 638.583 83.2834H653.599C653.799 83.2834 653.962 83.444 653.962 83.6416V83.7663Z" fill="#7D7D7D"/>
<path d="M611.275 74.3299C611.275 74.4835 611.179 74.6083 611.06 74.6083H597.885C597.766 74.6083 597.669 74.4837 597.669 74.3299V74.2599C597.669 74.1061 597.766 73.9815 597.885 73.9815H611.06C611.179 73.9815 611.275 74.1061 611.275 74.2599V74.3299Z" fill="white"/>
<path d="M620.178 75.0138H616.936H616.316H615.548H613.541C613.541 75.0138 613.491 75.0112 613.412 75.0138H595.088C595.001 75.3118 595 75.517 595 75.517V80.3905H597.657H597.553C597.553 80.3905 598.285 80.3867 598.651 79.9657L599.016 79.4707C599.016 79.4707 599.236 78.9529 599.821 78.9529H608.637C608.637 78.9529 609.082 78.9347 609.37 79.3379L609.813 79.9657C609.813 79.9657 610.087 80.3903 610.47 80.3903H612.337H613.541H615.548H616.877H617.187C618.017 80.3903 618.825 79.4499 618.825 79.4499L620.508 77.166C621.128 76.4046 621.217 75.9568 621.217 75.9568C621.217 74.9718 620.178 75.0138 620.178 75.0138Z" fill="#333333"/>
<path opacity="0.2" d="M611.68 78.046C611.68 78.1398 611.604 78.2156 611.512 78.2156H598.213C598.12 78.2156 598.045 78.1398 598.045 78.046V77.9898C598.045 77.8962 598.121 77.8204 598.213 77.8204H611.512C611.605 77.8204 611.68 77.8962 611.68 77.9898V78.046Z" fill="#F7F8F8"/>
<path opacity="0.2" d="M611.68 76.9537C611.68 77.0475 611.604 77.1233 611.512 77.1233H598.213C598.12 77.1233 598.045 77.0475 598.045 76.9537V76.8975C598.045 76.8037 598.121 76.7279 598.213 76.7279H611.512C611.605 76.7279 611.68 76.8037 611.68 76.8975V76.9537Z" fill="#F7F8F8"/>
<path opacity="0.2" d="M611.68 75.8807C611.68 75.9745 611.604 76.0503 611.512 76.0503H598.213C598.12 76.0503 598.045 75.9745 598.045 75.8807V75.8243C598.045 75.7307 598.121 75.6549 598.213 75.6549H611.512C611.605 75.6549 611.68 75.7307 611.68 75.8243V75.8807Z" fill="#F7F8F8"/>
<path d="M595.861 75.7617H595V79.6108H595.861C596.834 79.6108 596.918 78.7452 596.918 78.7452V76.5815C596.918 75.7001 595.861 75.7617 595.861 75.7617Z" fill="#FFDB5A"/>
<path d="M616.411 75.7617H614.424C614.424 75.7617 613.367 75.6999 613.367 76.5815V78.7452C613.367 78.7452 613.452 79.6108 614.424 79.6108H616.879V75.7617H616.411Z" fill="#FFDB5A"/>
<path d="M619.189 75.7609H616.893V79.61H617.048C617.642 79.61 618.221 78.9368 618.221 78.9368L619.425 77.3018C619.869 76.7566 619.933 76.4361 619.933 76.4361C619.932 75.7309 619.189 75.7609 619.189 75.7609Z" fill="#FEB942"/>
<path d="M616.202 77.9194C616.202 78.1172 616.039 78.2778 615.839 78.2778H614.102C613.901 78.2778 613.739 78.1172 613.739 77.9194V76.6778C613.739 76.4802 613.901 76.3196 614.102 76.3196H615.839C616.039 76.3196 616.202 76.4802 616.202 76.6778V77.9194Z" fill="#FEF8D8"/>
<path d="M596.667 77.9194C596.667 78.1172 596.505 78.2778 596.304 78.2778H595.617C595.417 78.2778 595.254 78.1172 595.254 77.9194V76.6778C595.254 76.4802 595.416 76.3196 595.617 76.3196H596.304C596.505 76.3196 596.667 76.4802 596.667 76.6778V77.9194Z" fill="#FEF8D8"/>
<path d="M653.695 77.0362V76.7687C653.695 76.5785 653.539 76.4241 653.346 76.4241H653.007C652.936 76.4241 652.869 76.4453 652.814 76.4819C652.756 76.4391 652.685 76.4129 652.607 76.4129H651.443C651.344 76.4129 651.256 76.4537 651.192 76.5187C651.13 76.4617 651.047 76.4259 650.955 76.4259H650.62C650.563 76.4259 650.511 76.4403 650.464 76.4635C650.421 76.4445 650.373 76.4337 650.322 76.4337H649.231C649.084 76.4337 648.94 76.4905 648.832 76.5877C648.771 76.4889 648.661 76.4221 648.535 76.4221H648.206C648.182 76.4221 648.16 76.4249 648.137 76.4291C648.115 76.4249 648.092 76.4221 648.069 76.4221H647.739C647.656 76.4221 647.58 76.4523 647.52 76.5009C647.498 76.4887 647.477 76.4757 647.453 76.4661C647.381 76.4381 647.306 76.4243 647.23 76.4243H647.037L648.025 75.9701L648.086 75.9419C648.125 75.9237 648.164 75.9051 648.189 75.8919C648.283 75.8449 648.356 75.7653 648.395 75.6657C648.434 75.5625 648.431 75.4501 648.386 75.3493C648.373 75.3191 648.355 75.2911 648.333 75.2657C648.144 75.0457 647.923 74.8545 647.677 74.6981C647.66 74.6871 647.641 74.6813 647.623 74.6735C647.6 74.6449 647.573 74.6189 647.541 74.5985C646.922 74.2077 646.212 73.9747 645.48 73.9149C645.23 73.5763 644.935 73.2734 644.596 73.018C644.563 72.9926 644.526 72.9756 644.488 72.9638C644.472 72.9468 644.457 72.9292 644.438 72.9156C643.971 72.575 643.422 72.3398 642.851 72.2364C642.816 72.2298 642.781 72.2286 642.746 72.233C642.634 72.246 642.533 72.3016 642.469 72.382C642.398 72.4668 642.363 72.578 642.374 72.6882C642.375 72.7112 642.379 72.7406 642.383 72.7716C642.386 72.7914 642.39 72.8134 642.391 72.8268C642.391 72.839 642.391 72.851 642.392 72.8628C642.427 73.1812 642.678 75.4407 642.686 75.5025C642.708 75.6843 642.821 75.8231 642.977 75.8741C643.017 75.8897 643.06 75.8981 643.105 75.8981C643.107 75.8981 643.109 75.8981 643.111 75.8981C643.244 75.8959 643.433 75.8577 643.621 75.7741C643.657 75.7861 643.694 75.7925 643.733 75.7925C643.776 75.7925 643.822 75.7897 643.87 75.7865C643.907 75.7839 643.946 75.7813 643.99 75.7813C644.077 75.7807 644.169 75.7861 644.256 75.7983C644.272 75.8005 644.288 75.8017 644.304 75.8017C644.346 75.8017 644.385 75.7927 644.423 75.7791C644.434 75.8291 644.456 75.8763 644.489 75.9173C644.445 75.8973 644.397 75.8833 644.346 75.8833H643.582C643.472 75.8833 643.369 75.9341 643.303 76.0205L643.062 76.3369V76.2281C643.062 76.0377 642.905 75.8833 642.713 75.8833H642.082C641.957 75.8833 641.848 75.9485 641.786 76.0463C641.759 76.0237 641.729 76.0037 641.695 75.9899C641.42 75.8785 641.13 75.8207 640.828 75.8181C639.962 75.8181 639.509 76.4015 639.509 76.9657C639.5 77.2291 639.591 77.4844 639.766 77.6842C639.77 77.6894 639.775 77.6948 639.78 77.6998C639.863 77.7826 639.951 77.8568 640.046 77.9228C640 77.9154 639.951 77.9174 639.904 77.929C639.81 77.953 639.731 78.0146 639.684 78.099L639.421 78.5794C639.331 78.744 639.39 78.9492 639.554 79.0422C639.883 79.2286 640.255 79.3266 640.629 79.3266C640.642 79.3266 640.655 79.3264 640.668 79.3262C641.11 79.3262 641.484 79.1748 641.733 78.9248V78.9566C641.733 79.147 641.889 79.3014 642.082 79.3014H642.103C642.126 79.3034 642.15 79.3042 642.173 79.3042C642.377 79.3042 642.577 79.2348 642.734 79.1094C642.865 79.006 642.961 78.8722 643.016 78.7168L643.322 79.1258C643.388 79.2134 643.492 79.2652 643.603 79.2652H644.403C644.537 79.2652 644.66 79.1896 644.718 79.07C644.776 78.951 644.76 78.8094 644.676 78.7058L643.722 77.5222L644.616 76.4461C644.668 76.3831 644.692 76.3053 644.692 76.2267C644.766 76.3581 644.832 76.4941 644.881 76.6353C644.89 76.6631 644.903 76.6889 644.919 76.7121C644.921 76.7165 644.926 76.7199 644.929 76.7245C644.937 76.8221 644.978 76.8925 644.997 76.9203C645.033 76.9895 645.088 77.047 645.156 77.0862C645.22 77.1234 645.293 77.1426 645.359 77.1426C645.444 77.1436 645.518 77.1258 645.573 77.0968L646.195 76.8107V76.993C646.195 77.051 646.209 77.1056 646.235 77.1536C646.209 77.2016 646.195 77.2564 646.195 77.3144V77.9118C646.195 78.0682 646.257 78.2158 646.37 78.3276C646.449 78.4052 646.547 78.4568 646.653 78.4816V78.6868C646.653 78.843 646.714 78.9906 646.826 79.102C646.938 79.2128 647.087 79.2744 647.249 79.2764H648.587C648.779 79.2764 648.936 79.122 648.936 78.9316V78.7068C648.936 78.6442 648.917 78.586 648.888 78.5356C648.988 78.6054 649.109 78.6454 649.232 78.6454H650.271V78.936C650.271 79.1264 650.427 79.2806 650.62 79.2806H650.709C650.787 79.2806 650.863 79.266 650.94 79.2352C651.011 79.2056 651.076 79.163 651.134 79.106C651.189 79.0508 651.232 78.9866 651.262 78.9138C651.281 78.8666 651.292 78.8168 651.298 78.7672C651.31 78.7684 651.322 78.771 651.334 78.771C651.334 78.771 651.643 78.771 651.643 78.771C651.991 78.771 652.319 78.6384 652.567 78.3974C652.6 78.3656 652.63 78.3324 652.659 78.2978V78.9342C652.659 79.1246 652.815 79.2788 653.008 79.2788H653.098C653.176 79.2788 653.252 79.2642 653.324 79.2356C653.398 79.206 653.463 79.1632 653.517 79.1102C653.574 79.0556 653.619 78.9908 653.649 78.9198C653.679 78.8488 653.695 78.7696 653.695 78.6912V77.93C653.848 77.8928 653.961 77.7574 653.961 77.5954V77.3706C653.96 77.2094 653.848 77.0732 653.695 77.0362ZM641.28 77.0478C641.433 77.0257 641.602 76.951 641.733 76.7647V77.356C641.593 77.2204 641.428 77.1228 641.28 77.0478ZM646.162 74.8721H645.839C645.667 74.8721 645.521 74.9031 645.403 74.9649C645.425 74.9049 645.447 74.8461 645.467 74.7899L645.533 74.6103C645.863 74.6463 646.186 74.7249 646.494 74.8429C646.385 74.8619 646.273 74.8715 646.162 74.8721ZM643.111 73.0098C643.274 73.0612 643.433 73.126 643.586 73.2028C643.581 73.2094 643.575 73.216 643.57 73.2228C643.423 73.4016 643.338 73.6269 643.331 73.8671C643.331 74.1289 643.424 74.3259 643.5 74.4843C643.557 74.6051 643.602 74.7003 643.603 74.8059C643.603 74.9799 643.474 75.0811 643.347 75.1387C643.289 74.6165 643.166 73.5114 643.111 73.0098ZM644.267 74.1345C644.215 74.0251 644.184 73.9571 644.18 73.8919C644.188 73.8305 644.215 73.7717 644.259 73.7253C644.275 73.7071 644.294 73.6915 644.315 73.6783C644.517 73.8467 644.699 74.0353 644.86 74.2415L644.446 74.7423C644.431 74.4775 644.337 74.2809 644.267 74.1345ZM645.856 75.7591C645.857 75.7361 645.858 75.7181 645.86 75.7039C645.87 75.7033 645.882 75.7029 645.896 75.7029H646.189C646.634 75.6971 647.07 75.5907 647.466 75.3939C647.485 75.4091 647.505 75.4245 647.524 75.4403L645.84 76.2143C645.853 76.1219 645.859 76.0287 645.856 75.9353L645.856 75.7591Z" fill="white"/>
<path d="M647.57 77.9314H646.884V77.554H647.479V77.0131C647.479 76.9813 647.472 76.9498 647.459 76.92C647.447 76.8902 647.429 76.8636 647.405 76.8408C647.382 76.8184 647.354 76.8006 647.325 76.7882C647.294 76.7765 647.262 76.7704 647.229 76.7704H646.543V76.9949H647.138V77.316H646.543V77.913C646.543 77.9774 646.569 78.0392 646.615 78.0843C646.662 78.1301 646.725 78.1557 646.79 78.1557H647.567L647.57 77.9314Z" fill="#FF7A00"/>
<path d="M647.337 78.7014V78.284H647.001V78.688C647.001 78.7523 647.027 78.8145 647.073 78.8599C647.12 78.9061 647.182 78.9318 647.248 78.9326H648.585V78.708L647.337 78.7014Z" fill="#FF7A00"/>
<path d="M648.535 76.7681H648.206V78.3083H648.535V76.7681Z" fill="#FF7A00"/>
<path d="M648.069 76.7681H647.74V77.3246H647.564V77.5495H647.74V78.3035H648.069V76.7681Z" fill="#FF7A00"/>
<path d="M653.346 77.3659V76.7704H653.008V78.9361H653.097C653.13 78.9361 653.162 78.9299 653.192 78.9179C653.222 78.9057 653.25 78.8885 653.273 78.8657C653.296 78.8431 653.315 78.8163 653.327 78.7865C653.34 78.7573 653.346 78.7249 653.346 78.6929V77.5971H653.612V77.3723L653.346 77.3659Z" fill="#FF7A00"/>
<path d="M651.443 77.0006H652.268V77.3622H651.445V77.5871H652.257C652.247 77.7464 652.178 77.8963 652.063 78.0096C651.948 78.1222 651.795 78.19 651.632 78.1993H651.333V78.424H651.64C651.895 78.4246 652.14 78.3259 652.321 78.1498C652.502 77.9733 652.605 77.7338 652.607 77.4833V76.7559H651.443V77.0006Z" fill="#FF7A00"/>
<path d="M650.619 76.7706V77.3641H650.333V77.5891H650.619V78.9363H650.709C650.741 78.9363 650.773 78.9301 650.804 78.9177C650.834 78.9053 650.861 78.8873 650.884 78.8645C650.907 78.8417 650.925 78.8147 650.937 78.7851C650.95 78.7557 650.956 78.7233 650.955 78.6913V76.7704L650.619 76.7706Z" fill="#FF7A00"/>
<path d="M648.984 77.0113V78.0549C648.984 78.1195 649.01 78.181 649.057 78.2264C649.103 78.272 649.166 78.2974 649.231 78.2974H650.322V78.0725H649.32V77.5924H650.141V77.3677H649.32V76.9995H650.322V76.7754H649.231C649.166 76.7754 649.103 76.801 649.057 76.8462C649.01 76.8917 648.984 76.9535 648.984 77.0173" fill="#FF7A00"/>
<path d="M640.956 77.2812C640.727 77.1756 640.535 77.0882 640.535 76.9152C640.535 76.7826 640.643 76.6904 640.858 76.6904C640.928 76.6904 640.997 76.697 641.066 76.711C641.1 76.713 641.134 76.713 641.169 76.711C641.356 76.711 641.461 76.6006 641.532 76.3916L641.562 76.3088C641.329 76.2144 641.08 76.1652 640.828 76.1628C640.192 76.1628 639.858 76.5626 639.858 76.9782C639.852 77.1538 639.913 77.3256 640.03 77.4588C640.173 77.6038 640.345 77.7192 640.535 77.7974C640.796 77.9238 641.032 78.0224 641.032 78.2022C641.032 78.3816 640.858 78.4624 640.624 78.4624C640.399 78.4522 640.18 78.3832 639.991 78.2628L639.728 78.7434C640.013 78.9054 640.338 78.9879 640.668 78.9817C641.26 78.9817 641.708 78.6465 641.708 78.1346C641.708 77.6224 641.292 77.4338 640.956 77.2744" fill="#EA002C"/>
<path d="M643.273 77.5203L644.346 76.2293H643.582L642.725 77.3521H642.713V76.2293H642.082V78.9582H642.119C642.262 78.9724 642.405 78.931 642.517 78.8422C642.629 78.7534 642.7 78.6248 642.716 78.4844C642.718 78.4512 642.718 78.4186 642.716 78.3854V77.7564H642.729L643.603 78.9222H644.403L643.273 77.5203Z" fill="#EA002C"/>
<path d="M644.382 73.2932C644.236 73.3154 644.102 73.3858 644.002 73.4928C643.902 73.5998 643.842 73.737 643.831 73.8814C643.831 74.2006 644.097 74.3938 644.099 74.8092C644.1 74.9382 644.067 75.0649 644.002 75.1773C643.938 75.2897 643.845 75.3835 643.733 75.4495C643.808 75.4495 643.893 75.4381 643.987 75.4381C644.093 75.4369 644.199 75.4435 644.304 75.4585L645.3 74.2568C645.051 73.8878 644.742 73.5624 644.385 73.2932" fill="#EA002C"/>
<path d="M645.217 76.5372C645.335 76.284 645.388 76.006 645.37 75.7286C645.382 75.4388 645.443 75.2188 645.839 75.2188C645.926 75.2188 646.011 75.2188 646.162 75.2188C646.582 75.2168 646.994 75.1036 647.353 74.8906C646.737 74.502 646.027 74.2802 645.295 74.2482C645.238 74.4054 644.796 75.6096 644.762 75.706C644.83 75.7866 644.891 75.873 644.943 75.9642C645.052 76.1416 645.142 76.3296 645.21 76.526" fill="#EA002C"/>
<path d="M643.115 75.5538C643.065 75.5538 643.039 75.52 643.033 75.464C643.026 75.4078 642.776 73.1681 642.74 72.8293C642.74 72.7797 642.722 72.6899 642.722 72.6585C642.719 72.6389 642.726 72.6195 642.738 72.6045C642.75 72.5893 642.768 72.5795 642.788 72.5771C643.311 72.6721 643.805 72.8833 644.231 73.1949C644.077 73.2333 643.94 73.3201 643.841 73.4415C643.742 73.5629 643.685 73.7129 643.68 73.8689C643.68 74.2373 643.95 74.4393 643.952 74.8078C643.952 75.4098 643.25 75.5536 643.106 75.5558" fill="#FF7A00"/>
<path d="M645.274 76.696C645.274 76.718 645.295 76.7408 645.306 76.7634C645.311 76.7742 645.32 76.7836 645.331 76.79C645.343 76.7962 645.355 76.7994 645.367 76.799C645.388 76.799 645.407 76.7948 645.425 76.7856L647.87 75.6626C647.916 75.6402 648.002 75.602 648.03 75.5862C648.048 75.5778 648.061 75.5634 648.068 75.5452C648.075 75.5274 648.074 75.5074 648.067 75.49C647.9 75.2958 647.705 75.1272 647.488 74.989C647.095 75.2252 646.645 75.3532 646.184 75.3596C646.033 75.3596 645.999 75.3596 645.896 75.3596C645.591 75.3596 645.516 75.4878 645.507 75.7482C645.507 75.7974 645.507 75.865 645.507 75.9366C645.515 76.2102 645.435 76.4788 645.278 76.705" fill="#FF7A00"/>
<path d="M670.308 73.5833C669.86 73.5833 669.498 73.9415 669.498 74.3833V76.5404C669.498 76.9824 669.86 77.3404 670.308 77.3404H670.84V73.5833H670.308Z" fill="#242634"/>
<path d="M670.573 74.1242C670.35 74.1242 670.168 74.3034 670.168 74.5242V76.5341C670.168 76.7549 670.35 76.9341 670.573 76.9341H670.839V74.1242H670.573Z" fill="#FEB942"/>
<path d="M632.49 70.3369L635.385 72.4042H641.677L638.455 69.8547L632.49 70.3369Z" fill="#C1C1C1"/>
<path d="M634.405 67.4744C634.405 67.4744 634.848 66.8887 635.681 66.8887H640.615C640.615 66.8887 641.248 66.9089 641.248 67.4744V69.6202C641.248 69.6202 641.315 70.3338 640.515 70.3338H632.49L634.405 67.4744Z" fill="#F7F8F8"/>
<path d="M641.249 69.6218V67.476C641.249 66.9938 640.789 66.9086 640.654 66.8936V69.0016C640.654 69.6684 640.03 69.6178 640.03 69.6178H632.971L632.49 70.3354H640.515C641.315 70.3354 641.249 69.6218 641.249 69.6218Z" fill="#242634"/>
<path d="M641.037 68.5963C641.037 68.7686 640.895 68.9085 640.721 68.9085H640.208C640.034 68.9085 639.892 68.7686 639.892 68.5963C639.892 68.424 640.034 68.2841 640.208 68.2841H640.721C640.895 68.2843 641.037 68.424 641.037 68.5963Z" fill="#FEB942"/>
<path d="M696.069 85.1566C695.958 84.0181 696.044 83.2777 696.044 83.2777C696.044 77.8778 697.589 74.0184 697.589 74.0184C704.8 66.0055 704.284 48.7926 704.284 48.7926C703.514 42.6484 683.439 42.5192 683.439 42.5192C683.439 42.5192 663.367 42.6489 662.594 48.7926C662.594 48.7926 662.079 66.005 669.289 74.0184C669.289 74.0184 670.836 77.8778 670.836 83.2777C670.836 83.2777 670.918 84.0181 670.808 85.1566C670.776 85.4945 670.712 85.815 670.639 86.1286H696.239C696.165 85.815 696.101 85.495 696.069 85.1566Z" fill="white"/>
<path d="M687.429 47.334C691.395 45.5352 690.409 44.1116 691.343 43.0513C689.649 42.8503 688.053 42.7245 686.742 42.6473C683.354 45.6512 679.075 46.3251 679.075 46.3251C679.075 46.3251 682.119 49.7417 687.429 47.334Z" fill="#D9D9D6"/>
<path d="M697.477 60.7965L696.85 43.9871L693.965 54.6422H676.757L674.514 43.1763C673.81 43.2714 673.097 43.3787 672.386 43.503L673.159 50.4027L674.158 81.5804L670.863 83.9925C670.863 84.3013 670.852 84.6926 670.809 85.1548C670.776 85.4932 670.711 85.8131 670.638 86.1278H696.239C696.166 85.8136 696.101 85.4932 696.069 85.1548C695.958 84.0163 696.044 83.2768 696.044 83.2768C696.044 77.8769 697.589 74.0171 697.589 74.0171C699.287 72.1294 700.553 69.729 701.503 67.1655C697.27 66.3533 697.477 60.7965 697.477 60.7965Z" fill="#CBCBC7"/>
<path d="M697.621 58.7393L702.92 74.2923L711.825 74.5924L706.34 54.3634L697.621 58.7393Z" fill="#FEBE87"/>
<path d="M662.137 48.6504C663.122 46.0529 666.037 44.7367 668.655 45.714C671.275 46.687 672.601 49.5845 671.618 52.1835L668.366 62.2453C667.887 63.53 665.151 63.6984 662.263 62.6245C659.377 61.5496 657.43 59.6361 657.915 58.3544L662.137 48.6504Z" fill="white"/>
<path d="M688.056 43.8936L686.913 35.5452H679.249L678.129 43.8936C678.115 44.0009 678.103 44.1048 678.103 44.2145C678.103 46.1799 680.332 47.7719 683.08 47.7719C685.83 47.7719 688.056 46.1799 688.056 44.2145C688.056 44.1048 688.071 44.0009 688.056 43.8936Z" fill="#FEBE87"/>
<path d="M684.115 40.2086C685.628 40.7082 687.081 40.2188 687.751 41.6617L686.921 35.6118L681.148 38.9603C681.148 38.9603 682.608 39.71 684.115 40.2086Z" fill="#EF7E58"/>
<path d="M693.511 24.7057C693.511 24.7057 692.052 15.2382 683.082 15.2382C674.111 15.2382 672.649 24.7057 672.649 24.7057C670.939 24.8698 670.934 26.5137 670.934 26.5137C670.972 28.0057 672.376 28.2839 672.376 28.2839C672.376 28.2839 673.004 28.3742 673.28 28.9437V29.5972C673.28 29.5972 673.952 35.6375 676.78 37.3514C676.78 37.3514 678.647 39.1158 683.081 39.1158C687.516 39.1158 689.383 37.3514 689.383 37.3514C692.21 35.639 692.882 29.5972 692.882 29.5972V28.9437C693.159 28.3737 693.789 28.2839 693.789 28.2839C693.789 28.2839 695.187 28.0057 695.229 26.5137C695.229 26.5137 695.223 24.8698 693.511 24.7057Z" fill="#FEBE87"/>
<path d="M693.512 24.7051C693.512 24.7051 693.203 22.7596 692.038 20.6326L690.174 22.0294C690.174 22.0294 690.923 22.9883 691.03 24.3098C691.139 25.6314 690.51 26.9141 691.03 28.6659C691.55 30.4152 691.115 36.0302 687.768 38.281C688.867 37.8246 689.382 37.3517 689.382 37.3517C692.21 35.6393 692.882 29.5976 692.882 29.5976V28.9441C693.158 28.3741 693.788 28.2843 693.788 28.2843C693.788 28.2843 695.187 28.0061 695.228 26.5141C695.228 26.5141 695.223 24.8697 693.512 24.7051Z" fill="#FEA85E"/>
<path d="M679.949 33.5251C679.949 32.089 681.348 32.5565 683.081 32.5565C684.812 32.5565 686.214 32.089 686.214 33.5251C686.214 34.9608 684.812 36.1246 683.081 36.1246C681.348 36.1246 679.949 34.9608 679.949 33.5251Z" fill="#FDEAD9"/>
<path d="M686.817 28.6671C686.817 28.3323 687.091 28.062 687.43 28.062C687.765 28.062 688.041 28.3323 688.041 28.6671C688.041 29.0014 687.765 29.2736 687.43 29.2736C687.091 29.2736 686.817 29.0014 686.817 28.6671Z" fill="#552011"/>
<path d="M678.732 29.2725C679.07 29.2725 679.343 29.0008 679.343 28.6659C679.343 28.3306 679.07 28.0594 678.732 28.0594C678.395 28.0594 678.121 28.3311 678.121 28.6659C678.121 29.0012 678.394 29.2725 678.732 29.2725Z" fill="#552011"/>
<path d="M693.313 19.1914C689.113 10.3773 680.239 12.9744 680.239 12.9744C678.394 13.4856 677.603 14.6232 677.603 14.6232L672.132 24.819C673.124 24.7321 673.135 25.8633 673.24 26.4449C673.343 27.0256 673.48 27.4708 673.963 27.4708C674.445 27.4708 674.341 25.455 674.341 25.455C674.616 21.4903 678.291 20.9412 678.291 20.9412C678.291 20.9412 679.674 20.6678 681.223 20.9412C682.774 21.215 683.083 21.1276 683.083 21.1276C683.083 21.1276 683.395 21.215 684.947 20.9412C686.496 20.6678 687.877 20.9412 687.877 20.9412C687.877 20.9412 691.551 21.4908 691.826 25.455C691.826 25.455 691.722 27.4708 692.205 27.4708C692.687 27.4708 692.825 27.0256 692.927 26.4449C693.018 25.9521 693.046 25.07 693.656 24.8646L694.037 24.8199L694.278 24.9229C694.403 21.6888 693.313 19.1914 693.313 19.1914Z" fill="#552011"/>
<path d="M665.241 62.4428C665.305 62.7142 665.577 62.8856 665.852 62.822C666.126 62.7604 666.298 62.488 666.236 62.2142L662.527 46.2733C662.464 46.0019 662.188 45.8329 661.913 45.8965C661.638 45.9577 661.47 46.2286 661.533 46.5024L665.241 62.4428Z" fill="#552011"/>
<path opacity="0.5" d="M676.947 33.3531C677.554 33.3531 678.048 32.8637 678.048 32.2607C678.048 31.6562 677.554 31.1673 676.947 31.1673C676.339 31.1673 675.845 31.6562 675.845 32.2607C675.845 32.8637 676.34 33.3531 676.947 33.3531Z" fill="#F08900"/>
<path opacity="0.5" d="M689.216 33.3531C689.824 33.3531 690.316 32.8637 690.316 32.2607C690.316 31.6562 689.824 31.1673 689.216 31.1673C688.607 31.1673 688.115 31.6562 688.115 32.2607C688.115 32.8637 688.607 33.3531 689.216 33.3531Z" fill="#F08900"/>
<path d="M704.724 70.8243L701.754 70.9797L698.786 62.0292L701.163 60.7295L704.724 70.8243Z" fill="#FEA85E"/>
<path d="M708.96 58.3539L704.74 48.6504C703.754 46.0529 700.839 44.7372 698.219 45.7136C697.743 45.8913 697.325 46.1491 696.94 46.4418L697.403 58.8224L698.507 62.2453C698.989 63.5295 701.727 63.6985 704.61 62.6245C707.5 61.5501 709.448 59.6362 708.96 58.3539Z" fill="white"/>
<path d="M700.22 71.1941C700.855 69.4205 700.626 69.2822 700.626 69.2822C694.471 68.3709 695.392 57.7221 695.392 57.7221C695.324 57.1259 695.066 56.7035 694.725 56.4039L696.901 43.6839C695.515 43.3198 692.719 42.8639 692.719 42.8639L691.269 55.7174H684.75L683.439 55.697L682.127 55.7174H675.607L674.158 42.8639C674.158 42.8639 671.362 43.3198 669.975 43.6839L672.151 56.4039C671.809 56.7035 671.553 57.1259 671.485 57.7221C671.485 57.7221 672.405 68.3709 666.25 69.2822C666.25 69.2822 666.023 69.421 666.657 71.1941C666.657 71.1941 669.445 80.5009 668.092 84.4953C666.738 88.4891 666.024 91.7712 666.657 96.8317L670.568 134.009L670.578 133.961C670.923 136.516 673.103 138.498 675.776 138.503C678.59 138.513 680.872 136.328 681.038 133.574L681.047 133.741L683.439 104.499L685.83 133.741L685.839 133.574C686.004 136.328 688.287 138.513 691.101 138.503C693.773 138.498 695.953 136.516 696.298 133.961L696.31 134.009L700.221 96.8317C700.854 91.7712 700.138 88.4901 698.786 84.4953C697.432 80.5005 700.22 71.1941 700.22 71.1941Z" fill="#294478"/>
<path d="M700.626 69.2822C694.471 68.3709 695.393 57.7221 695.393 57.7221C695.323 57.1259 695.067 56.7035 694.726 56.4039L696.902 43.6839C695.516 43.3198 692.718 42.8639 692.718 42.8639L691.27 55.7174H689.877L689.215 62.1728C689.215 62.1728 688.123 71.2058 691.72 76.2231C695.317 81.2418 695.049 88.2381 694.287 104.499L691.915 138.426C694.204 138.065 695.988 136.248 696.297 133.961L696.308 134.009L700.22 96.8312C700.853 91.7712 700.138 88.4891 698.785 84.4958C697.432 80.5014 700.22 71.1946 700.22 71.1946C700.855 69.421 700.626 69.2822 700.626 69.2822Z" fill="#142953"/>
<path d="M675.157 58.0963C675.157 58.6435 674.71 59.0872 674.158 59.0872C673.604 59.0872 673.159 58.6435 673.159 58.0963C673.159 57.5486 673.604 57.1049 674.158 57.1049C674.71 57.1049 675.157 57.5491 675.157 58.0963Z" fill="white"/>
<path d="M691.721 58.0963C691.721 58.6435 692.165 59.0872 692.72 59.0872C693.269 59.0872 693.719 58.6435 693.719 58.0963C693.719 57.5486 693.269 57.1049 692.72 57.1049C692.165 57.1049 691.721 57.5491 691.721 58.0963Z" fill="white"/>
<path d="M683.438 104.5V99.8366L678.026 96.353L682.41 117.073L683.438 104.5Z" fill="#142953"/>
<path d="M691.229 62.1718H678.026V62.9287H691.229V62.1718Z" fill="#142953"/>
<path d="M660.712 58.3175C660.712 58.3175 660.077 57.8879 660.331 56.7756C660.585 55.6628 661.096 55.587 661.656 55.6628C661.656 55.6628 663.243 55.74 664.882 56.8518L664.953 55.9885C664.953 55.9885 665.043 55.4608 665.655 55.5113C666.266 55.5618 666.75 55.6628 666.75 55.6628C666.75 55.6628 667.999 55.6632 666.75 57.9893L660.712 58.3175Z" fill="#FEBE87"/>
<path d="M672.909 59.773L681.712 83.5947C681.712 83.5947 683.088 86.4452 679.949 86.4452H661.861C661.861 86.4452 658.825 86.5277 657.84 83.9016L649.074 60.5406C649.074 60.5406 647.74 57.5969 651.114 57.5969H669.232C669.232 57.5969 672.093 57.5658 672.909 59.773Z" fill="#F4F4F4"/>
<path d="M681.712 83.5943L672.909 59.773C672.206 57.8688 669.982 57.6314 669.385 57.6018L679.95 85.5261H659.041C660.29 86.4816 661.862 86.4447 661.862 86.4447H679.95C683.088 86.4447 681.712 83.5943 681.712 83.5943Z" fill="#E0E0E0"/>
<path d="M711.825 74.5872C711.204 72.2504 709.078 70.7269 706.751 70.7279L706.754 70.7138L706.606 70.723C706.515 70.724 706.426 70.7288 706.336 70.7356L682.89 71.9781C681.392 72.0174 680.797 71.2746 680.783 71.2576L679.185 69.2043C679.185 69.2043 678.189 67.8653 676.108 68.6591L676.442 69.549C676.442 69.549 676.583 70.1297 676.063 70.3705L671.064 72.669C671.064 72.669 669.784 73.1933 670.135 74.0954C670.135 74.0954 670.223 74.7183 671.323 75.2407C671.323 75.2407 674.073 76.7628 675.625 77.9902C675.625 77.9902 677.608 79.505 679.848 78.6218C679.848 78.6218 680.579 78.3592 681.382 77.8897C681.407 77.8771 682.36 77.377 683.182 77.5178L705.663 81.0023L705.665 80.9834C706.445 81.1509 707.269 81.165 708.092 80.9494C710.895 80.2143 712.565 77.3687 711.825 74.5872Z" fill="#FEBE87"/>
<path d="M690.498 76.5463C685.437 75.5709 682.413 75.5709 681.128 76.1719C679.843 76.772 679.012 77.4464 677.047 76.1719C675.083 74.8965 673.948 74.8212 672.285 74.2216C670.646 73.6293 670.53 73.0185 670.528 73.002C670.227 73.2453 669.947 73.6152 670.135 74.0978C670.135 74.0978 670.223 74.7212 671.323 75.2431C671.323 75.2431 674.073 76.7662 675.625 77.9931C675.625 77.9931 677.608 79.5084 679.848 78.6252C679.848 78.6252 680.579 78.3621 681.381 77.8921C681.406 77.8805 682.36 77.3799 683.182 77.5207L705.663 81.0047L705.665 80.9868C706.445 81.1533 707.269 81.1669 708.092 80.9528C709.306 80.6348 710.286 79.908 710.973 78.9763C707.622 81.531 695.54 77.5173 690.498 76.5463Z" fill="#FEA85E"/>
<path d="M663.611 57.5969H655.158L656.286 60.6012C656.286 60.6012 656.579 61.2839 657.453 61.2839H664.204C664.204 61.2839 664.94 61.2698 664.687 60.525L663.611 57.5969Z" fill="#999999"/>
<path d="M676.13 26.2141C676.13 26.2141 681.889 23.387 685.861 25.4868C689.834 27.5867 690.526 27.2162 691.031 28.6689L691.499 25.1795C691.499 25.1795 680.125 20.0029 676.13 26.2141Z" fill="#FEA85E"/>
<path d="M692.899 17.3875H692.893C691.518 14.2549 687.704 12.0012 683.21 12.0012C678.713 12.0012 674.906 14.2554 673.527 17.3875H673.523C672.348 19.2431 672.035 24.4925 672.035 24.4925L674.512 24.1492L683.211 22.949L691.91 24.1492L694.385 24.4925C694.384 24.4925 694.073 19.2426 692.899 17.3875Z" fill="#294478"/>
<path d="M694.383 24.4914C694.383 24.4914 694.073 19.2416 692.899 17.3864H692.893C691.517 14.2539 687.704 12.0001 683.21 12.0001C683.21 12.0001 689.785 13.0537 689.735 22.5586L689.687 23.8428L691.909 24.1491L694.383 24.4914Z" fill="#142953"/>
<path d="M694.343 24.444C691.198 21.9291 683.192 22.1262 683.192 22.1262C683.192 22.1262 675.181 21.9296 672.035 24.444C672.035 24.444 671.74 26.4536 674.485 26.555C677.234 26.657 678.267 23.5283 683.192 23.6274C688.111 23.5283 689.147 26.657 691.894 26.555C694.638 26.4536 694.343 24.444 694.343 24.444Z" fill="#142953"/>
</g>
</svg>
